<svg width="565" height="318" viewBox="0 0 565 318" fill="none" xmlns="http://www.w3.org/2000/svg">
<path d="M12.225 24.125H4.625L3.225 28H0.825L7.125 10.675H9.75L16.025 28H13.625L12.225 24.125ZM11.575 22.275L8.425 13.475L5.275 22.275H11.575ZM21.0457 16.85C21.5124 16.0333 22.1957 15.3667 23.0957 14.85C23.9957 14.3333 25.0207 14.075 26.1707 14.075C27.404 14.075 28.5124 14.3667 29.4957 14.95C30.479 15.5333 31.254 16.3583 31.8207 17.425C32.3874 18.475 32.6707 19.7 32.6707 21.1C32.6707 22.4833 32.3874 23.7167 31.8207 24.8C31.254 25.8833 30.4707 26.725 29.4707 27.325C28.4874 27.925 27.3874 28.225 26.1707 28.225C24.9874 28.225 23.9457 27.9667 23.0457 27.45C22.1624 26.9333 21.4957 26.275 21.0457 25.475V28H18.7707V9.5H21.0457V16.85ZM30.3457 21.1C30.3457 20.0667 30.1374 19.1667 29.7207 18.4C29.304 17.6333 28.7374 17.05 28.0207 16.65C27.3207 16.25 26.5457 16.05 25.6957 16.05C24.8624 16.05 24.0874 16.2583 23.3707 16.675C22.6707 17.075 22.104 17.6667 21.6707 18.45C21.254 19.2167 21.0457 20.1083 21.0457 21.125C21.0457 22.1583 21.254 23.0667 21.6707 23.85C22.104 24.6167 22.6707 25.2083 23.3707 25.625C24.0874 26.025 24.8624 26.225 25.6957 26.225C26.5457 26.225 27.3207 26.025 28.0207 25.625C28.7374 25.2083 29.304 24.6167 29.7207 23.85C30.1374 23.0667 30.3457 22.15 30.3457 21.1ZM41.6402 28.225C40.3569 28.225 39.1902 27.9333 38.1402 27.35C37.1069 26.7667 36.2902 25.9417 35.6902 24.875C35.1069 23.7917 34.8152 22.5417 34.8152 21.125C34.8152 19.725 35.1152 18.4917 35.7152 17.425C36.3319 16.3417 37.1652 15.5167 38.2152 14.95C39.2652 14.3667 40.4402 14.075 41.7402 14.075C43.0402 14.075 44.2152 14.3667 45.2652 14.95C46.3152 15.5167 47.1402 16.3333 47.7402 17.4C48.3569 18.4667 48.6652 19.7083 48.6652 21.125C48.6652 22.5417 48.3486 23.7917 47.7152 24.875C47.0986 25.9417 46.2569 26.7667 45.1902 27.35C44.1236 27.9333 42.9402 28.225 41.6402 28.225ZM41.6402 26.225C42.4569 26.225 43.2236 26.0333 43.9402 25.65C44.6569 25.2667 45.2319 24.6917 45.6652 23.925C46.1152 23.1583 46.3402 22.225 46.3402 21.125C46.3402 20.025 46.1236 19.0917 45.6902 18.325C45.2569 17.5583 44.6902 16.9917 43.9902 16.625C43.2902 16.2417 42.5319 16.05 41.7152 16.05C40.8819 16.05 40.1152 16.2417 39.4152 16.625C38.7319 16.9917 38.1819 17.5583 37.7652 18.325C37.3486 19.0917 37.1402 20.025 37.1402 21.125C37.1402 22.2417 37.3402 23.1833 37.7402 23.95C38.1569 24.7167 38.7069 25.2917 39.3902 25.675C40.0736 26.0417 40.8236 26.225 41.6402 26.225ZM63.8064 14.3V28H61.5314V25.975C61.0981 26.675 60.4898 27.225 59.7064 27.625C58.9398 28.0083 58.0898 28.2 57.1564 28.2C56.0898 28.2 55.1314 27.9833 54.2814 27.55C53.4314 27.1 52.7564 26.4333 52.2564 25.55C51.7731 24.6667 51.5314 23.5917 51.5314 22.325V14.3H53.7814V22.025C53.7814 23.375 54.1231 24.4167 54.8064 25.15C55.4898 25.8667 56.4231 26.225 57.6064 26.225C58.8231 26.225 59.7814 25.85 60.4814 25.1C61.1814 24.35 61.5314 23.2583 61.5314 21.825V14.3H63.8064ZM70.4227 16.175V24.25C70.4227 24.9167 70.5643 25.3917 70.8477 25.675C71.131 25.9417 71.6227 26.075 72.3227 26.075H73.9977V28H71.9477C70.681 28 69.731 27.7083 69.0977 27.125C68.4643 26.5417 68.1477 25.5833 68.1477 24.25V16.175H66.3727V14.3H68.1477V10.85H70.4227V14.3H73.9977V16.175H70.4227ZM95.5691 14.3V28H93.2941V25.975C92.8608 26.675 92.2525 27.225 91.4691 27.625C90.7025 28.0083 89.8525 28.2 88.9191 28.2C87.8525 28.2 86.8941 27.9833 86.0441 27.55C85.1941 27.1 84.5191 26.4333 84.0191 25.55C83.5358 24.6667 83.2941 23.5917 83.2941 22.325V14.3H85.5441V22.025C85.5441 23.375 85.8858 24.4167 86.5691 25.15C87.2525 25.8667 88.1858 26.225 89.3691 26.225C90.5858 26.225 91.5441 25.85 92.2441 25.1C92.9441 24.35 93.2941 23.2583 93.2941 21.825V14.3H95.5691ZM104.26 28.225C103.21 28.225 102.269 28.05 101.435 27.7C100.602 27.3333 99.9437 26.8333 99.4604 26.2C98.977 25.55 98.7104 24.8083 98.6604 23.975H101.01C101.077 24.6583 101.394 25.2167 101.96 25.65C102.544 26.0833 103.302 26.3 104.235 26.3C105.102 26.3 105.785 26.1083 106.285 25.725C106.785 25.3417 107.035 24.8583 107.035 24.275C107.035 23.675 106.769 23.2333 106.235 22.95C105.702 22.65 104.877 22.3583 103.76 22.075C102.744 21.8083 101.91 21.5417 101.26 21.275C100.627 20.9917 100.077 20.5833 99.6104 20.05C99.1604 19.5 98.9354 18.7833 98.9354 17.9C98.9354 17.2 99.1437 16.5583 99.5604 15.975C99.977 15.3917 100.569 14.9333 101.335 14.6C102.102 14.25 102.977 14.075 103.96 14.075C105.477 14.075 106.702 14.4583 107.635 15.225C108.569 15.9917 109.069 17.0417 109.135 18.375H106.86C106.81 17.6583 106.519 17.0833 105.985 16.65C105.469 16.2167 104.769 16 103.885 16C103.069 16 102.419 16.175 101.935 16.525C101.452 16.875 101.21 17.3333 101.21 17.9C101.21 18.35 101.352 18.725 101.635 19.025C101.935 19.3083 102.302 19.5417 102.735 19.725C103.185 19.8917 103.802 20.0833 104.585 20.3C105.569 20.5667 106.369 20.8333 106.985 21.1C107.602 21.35 108.127 21.7333 108.56 22.25C109.01 22.7667 109.244 23.4417 109.26 24.275C109.26 25.025 109.052 25.7 108.635 26.3C108.219 26.9 107.627 27.375 106.86 27.725C106.11 28.0583 105.244 28.225 104.26 28.225Z" fill="#1090CB"/>
<path d="M8.36 100.56H17.56V105H2.76V77.08H8.36V100.56ZM30.9594 105.36C28.826 105.36 26.906 104.893 25.1994 103.96C23.4927 103 22.146 101.653 21.1594 99.92C20.1994 98.1867 19.7194 96.1867 19.7194 93.92C19.7194 91.6533 20.2127 89.6533 21.1994 87.92C22.2127 86.1867 23.586 84.8533 25.3194 83.92C27.0527 82.96 28.986 82.48 31.1194 82.48C33.2527 82.48 35.186 82.96 36.9194 83.92C38.6527 84.8533 40.0127 86.1867 40.9994 87.92C42.0127 89.6533 42.5194 91.6533 42.5194 93.92C42.5194 96.1867 41.9994 98.1867 40.9594 99.92C39.946 101.653 38.5594 103 36.7994 103.96C35.066 104.893 33.1194 105.36 30.9594 105.36ZM30.9594 100.48C31.9727 100.48 32.9194 100.24 33.7994 99.76C34.706 99.2533 35.426 98.5067 35.9594 97.52C36.4927 96.5333 36.7594 95.3333 36.7594 93.92C36.7594 91.8133 36.1994 90.2 35.0794 89.08C33.986 87.9333 32.6394 87.36 31.0394 87.36C29.4394 87.36 28.0927 87.9333 26.9994 89.08C25.9327 90.2 25.3994 91.8133 25.3994 93.92C25.3994 96.0267 25.9194 97.6533 26.9594 98.8C28.026 99.92 29.3594 100.48 30.9594 100.48ZM52.2272 86.28C52.9472 85.1067 53.8805 84.1867 55.0272 83.52C56.2005 82.8533 57.5339 82.52 59.0272 82.52V88.4H57.5472C55.7872 88.4 54.4539 88.8133 53.5472 89.64C52.6672 90.4667 52.2272 91.9067 52.2272 93.96V105H46.6272V82.84H52.2272V86.28ZM83.3991 93.44C83.3991 94.24 83.3457 94.96 83.2391 95.6H67.0391C67.1724 97.2 67.7324 98.4533 68.7191 99.36C69.7057 100.267 70.9191 100.72 72.3591 100.72C74.4391 100.72 75.9191 99.8267 76.7991 98.04H82.8391C82.1991 100.173 80.9724 101.933 79.1591 103.32C77.3457 104.68 75.1191 105.36 72.4791 105.36C70.3457 105.36 68.4257 104.893 66.7191 103.96C65.0391 103 63.7191 101.653 62.7591 99.92C61.8257 98.1867 61.3591 96.1867 61.3591 93.92C61.3591 91.6267 61.8257 89.6133 62.7591 87.88C63.6924 86.1467 64.9991 84.8133 66.6791 83.88C68.3591 82.9467 70.2924 82.48 72.4791 82.48C74.5857 82.48 76.4657 82.9333 78.1191 83.84C79.7991 84.7467 81.0924 86.04 81.9991 87.72C82.9324 89.3733 83.3991 91.28 83.3991 93.44ZM77.5991 91.84C77.5724 90.4 77.0524 89.2533 76.0391 88.4C75.0257 87.52 73.7857 87.08 72.3191 87.08C70.9324 87.08 69.7591 87.5067 68.7991 88.36C67.8657 89.1867 67.2924 90.3467 67.0791 91.84H77.5991ZM115.007 82.52C117.727 82.52 119.913 83.36 121.567 85.04C123.247 86.6933 124.087 89.0133 124.087 92V105H118.487V92.76C118.487 91.0267 118.047 89.7067 117.167 88.8C116.287 87.8667 115.087 87.4 113.567 87.4C112.047 87.4 110.833 87.8667 109.927 88.8C109.047 89.7067 108.607 91.0267 108.607 92.76V105H103.007V92.76C103.007 91.0267 102.567 89.7067 101.687 88.8C100.807 87.8667 99.6066 87.4 98.0866 87.4C96.5399 87.4 95.3132 87.8667 94.4066 88.8C93.5266 89.7067 93.0866 91.0267 93.0866 92.76V105H87.4866V82.84H93.0866V85.52C93.8066 84.5867 94.7266 83.8533 95.8466 83.32C96.9932 82.7867 98.2466 82.52 99.6066 82.52C101.34 82.52 102.887 82.8933 104.247 83.64C105.607 84.36 106.66 85.4 107.407 86.76C108.127 85.48 109.167 84.4533 110.527 83.68C111.913 82.9067 113.407 82.52 115.007 82.52ZM144.532 77.08V105H138.932V77.08H144.532ZM155.665 86.04C156.385 85.0267 157.371 84.1867 158.625 83.52C159.905 82.8267 161.358 82.48 162.985 82.48C164.878 82.48 166.585 82.9467 168.105 83.88C169.651 84.8133 170.865 86.1467 171.745 87.88C172.651 89.5867 173.105 91.5733 173.105 93.84C173.105 96.1067 172.651 98.12 171.745 99.88C170.865 101.613 169.651 102.96 168.105 103.92C166.585 104.88 164.878 105.36 162.985 105.36C161.358 105.36 159.918 105.027 158.665 104.36C157.438 103.693 156.438 102.853 155.665 101.84V115.56H150.065V82.84H155.665V86.04ZM167.385 93.84C167.385 92.5067 167.105 91.36 166.545 90.4C166.011 89.4133 165.291 88.6667 164.385 88.16C163.505 87.6533 162.545 87.4 161.505 87.4C160.491 87.4 159.531 87.6667 158.625 88.2C157.745 88.7067 157.025 89.4533 156.465 90.44C155.931 91.4267 155.665 92.5867 155.665 93.92C155.665 95.2533 155.931 96.4133 156.465 97.4C157.025 98.3867 157.745 99.1467 158.625 99.68C159.531 100.187 160.491 100.44 161.505 100.44C162.545 100.44 163.505 100.173 164.385 99.64C165.291 99.1067 166.011 98.3467 166.545 97.36C167.105 96.3733 167.385 95.2 167.385 93.84ZM185.654 105.36C183.841 105.36 182.214 105.04 180.774 104.4C179.334 103.733 178.187 102.84 177.334 101.72C176.507 100.6 176.054 99.36 175.974 98H181.614C181.721 98.8533 182.134 99.56 182.854 100.12C183.601 100.68 184.521 100.96 185.614 100.96C186.681 100.96 187.507 100.747 188.094 100.32C188.707 99.8933 189.014 99.3467 189.014 98.68C189.014 97.96 188.641 97.4267 187.894 97.08C187.174 96.7067 186.014 96.3067 184.414 95.88C182.761 95.48 181.401 95.0667 180.334 94.64C179.294 94.2133 178.387 93.56 177.614 92.68C176.867 91.8 176.494 90.6133 176.494 89.12C176.494 87.8933 176.841 86.7733 177.534 85.76C178.254 84.7467 179.267 83.9467 180.574 83.36C181.907 82.7733 183.467 82.48 185.254 82.48C187.894 82.48 190.001 83.1467 191.574 84.48C193.147 85.7867 194.014 87.56 194.174 89.8H188.814C188.734 88.92 188.361 88.2267 187.694 87.72C187.054 87.1867 186.187 86.92 185.094 86.92C184.081 86.92 183.294 87.1067 182.734 87.48C182.201 87.8533 181.934 88.3733 181.934 89.04C181.934 89.7867 182.307 90.36 183.054 90.76C183.801 91.1333 184.961 91.52 186.534 91.92C188.134 92.32 189.454 92.7333 190.494 93.16C191.534 93.5867 192.427 94.2533 193.174 95.16C193.947 96.04 194.347 97.2133 194.374 98.68C194.374 99.96 194.014 101.107 193.294 102.12C192.601 103.133 191.587 103.933 190.254 104.52C188.947 105.08 187.414 105.36 185.654 105.36ZM219.891 82.84V105H214.251V102.2C213.531 103.16 212.584 103.92 211.411 104.48C210.264 105.013 209.011 105.28 207.651 105.28C205.918 105.28 204.384 104.92 203.051 104.2C201.718 103.453 200.664 102.373 199.891 100.96C199.144 99.52 198.771 97.8133 198.771 95.84V82.84H204.371V95.04C204.371 96.8 204.811 98.16 205.691 99.12C206.571 100.053 207.771 100.52 209.291 100.52C210.838 100.52 212.051 100.053 212.931 99.12C213.811 98.16 214.251 96.8 214.251 95.04V82.84H219.891ZM252.936 82.52C255.656 82.52 257.843 83.36 259.496 85.04C261.176 86.6933 262.016 89.0133 262.016 92V105H256.416V92.76C256.416 91.0267 255.976 89.7067 255.096 88.8C254.216 87.8667 253.016 87.4 251.496 87.4C249.976 87.4 248.763 87.8667 247.856 88.8C246.976 89.7067 246.536 91.0267 246.536 92.76V105H240.936V92.76C240.936 91.0267 240.496 89.7067 239.616 88.8C238.736 87.8667 237.536 87.4 236.016 87.4C234.47 87.4 233.243 87.8667 232.336 88.8C231.456 89.7067 231.016 91.0267 231.016 92.76V105H225.416V82.84H231.016V85.52C231.736 84.5867 232.656 83.8533 233.776 83.32C234.923 82.7867 236.176 82.52 237.536 82.52C239.27 82.52 240.816 82.8933 242.176 83.64C243.536 84.36 244.59 85.4 245.336 86.76C246.056 85.48 247.096 84.4533 248.456 83.68C249.843 82.9067 251.336 82.52 252.936 82.52ZM279.702 80.2C278.715 80.2 277.888 79.8933 277.222 79.28C276.582 78.64 276.262 77.8533 276.262 76.92C276.262 75.9867 276.582 75.2133 277.222 74.6C277.888 73.96 278.715 73.64 279.702 73.64C280.688 73.64 281.502 73.96 282.142 74.6C282.808 75.2133 283.142 75.9867 283.142 76.92C283.142 77.8533 282.808 78.64 282.142 79.28C281.502 79.8933 280.688 80.2 279.702 80.2ZM282.462 82.84V105H276.862V82.84H282.462ZM296.474 105.36C294.661 105.36 293.034 105.04 291.594 104.4C290.154 103.733 289.008 102.84 288.154 101.72C287.328 100.6 286.874 99.36 286.794 98H292.434C292.541 98.8533 292.954 99.56 293.674 100.12C294.421 100.68 295.341 100.96 296.434 100.96C297.501 100.96 298.328 100.747 298.914 100.32C299.528 99.8933 299.834 99.3467 299.834 98.68C299.834 97.96 299.461 97.4267 298.714 97.08C297.994 96.7067 296.834 96.3067 295.234 95.88C293.581 95.48 292.221 95.0667 291.154 94.64C290.114 94.2133 289.208 93.56 288.434 92.68C287.688 91.8 287.314 90.6133 287.314 89.12C287.314 87.8933 287.661 86.7733 288.354 85.76C289.074 84.7467 290.088 83.9467 291.394 83.36C292.728 82.7733 294.288 82.48 296.074 82.48C298.714 82.48 300.821 83.1467 302.394 84.48C303.968 85.7867 304.834 87.56 304.994 89.8H299.634C299.554 88.92 299.181 88.2267 298.514 87.72C297.874 87.1867 297.008 86.92 295.914 86.92C294.901 86.92 294.114 87.1067 293.554 87.48C293.021 87.8533 292.754 88.3733 292.754 89.04C292.754 89.7867 293.128 90.36 293.874 90.76C294.621 91.1333 295.781 91.52 297.354 91.92C298.954 92.32 300.274 92.7333 301.314 93.16C302.354 93.5867 303.248 94.2533 303.994 95.16C304.768 96.04 305.168 97.2133 305.194 98.68C305.194 99.96 304.834 101.107 304.114 102.12C303.421 103.133 302.408 103.933 301.074 104.52C299.768 105.08 298.234 105.36 296.474 105.36ZM327.803 105.36C325.989 105.36 324.363 105.04 322.923 104.4C321.483 103.733 320.336 102.84 319.483 101.72C318.656 100.6 318.203 99.36 318.123 98H323.763C323.869 98.8533 324.283 99.56 325.003 100.12C325.749 100.68 326.669 100.96 327.763 100.96C328.829 100.96 329.656 100.747 330.243 100.32C330.856 99.8933 331.163 99.3467 331.163 98.68C331.163 97.96 330.789 97.4267 330.043 97.08C329.323 96.7067 328.163 96.3067 326.562 95.88C324.909 95.48 323.549 95.0667 322.483 94.64C321.443 94.2133 320.536 93.56 319.763 92.68C319.016 91.8 318.643 90.6133 318.643 89.12C318.643 87.8933 318.989 86.7733 319.683 85.76C320.403 84.7467 321.416 83.9467 322.723 83.36C324.056 82.7733 325.616 82.48 327.403 82.48C330.043 82.48 332.149 83.1467 333.723 84.48C335.296 85.7867 336.163 87.56 336.323 89.8H330.963C330.883 88.92 330.509 88.2267 329.843 87.72C329.203 87.1867 328.336 86.92 327.243 86.92C326.229 86.92 325.443 87.1067 324.883 87.48C324.349 87.8533 324.083 88.3733 324.083 89.04C324.083 89.7867 324.456 90.36 325.203 90.76C325.949 91.1333 327.109 91.52 328.683 91.92C330.283 92.32 331.603 92.7333 332.643 93.16C333.683 93.5867 334.576 94.2533 335.323 95.16C336.096 96.04 336.496 97.2133 336.523 98.68C336.523 99.96 336.163 101.107 335.443 102.12C334.749 103.133 333.736 103.933 332.403 104.52C331.096 105.08 329.563 105.36 327.803 105.36ZM343.959 80.2C342.973 80.2 342.146 79.8933 341.479 79.28C340.839 78.64 340.519 77.8533 340.519 76.92C340.519 75.9867 340.839 75.2133 341.479 74.6C342.146 73.96 342.973 73.64 343.959 73.64C344.946 73.64 345.759 73.96 346.399 74.6C347.066 75.2133 347.399 75.9867 347.399 76.92C347.399 77.8533 347.066 78.64 346.399 79.28C345.759 79.8933 344.946 80.2 343.959 80.2ZM346.719 82.84V105H341.119V82.84H346.719ZM379.772 82.52C382.492 82.52 384.679 83.36 386.332 85.04C388.012 86.6933 388.852 89.0133 388.852 92V105H383.252V92.76C383.252 91.0267 382.812 89.7067 381.932 88.8C381.052 87.8667 379.852 87.4 378.332 87.4C376.812 87.4 375.599 87.8667 374.692 88.8C373.812 89.7067 373.372 91.0267 373.372 92.76V105H367.772V92.76C367.772 91.0267 367.332 89.7067 366.452 88.8C365.572 87.8667 364.372 87.4 362.852 87.4C361.306 87.4 360.079 87.8667 359.172 88.8C358.292 89.7067 357.852 91.0267 357.852 92.76V105H352.252V82.84H357.852V85.52C358.572 84.5867 359.492 83.8533 360.612 83.32C361.759 82.7867 363.012 82.52 364.372 82.52C366.106 82.52 367.652 82.8933 369.012 83.64C370.372 84.36 371.426 85.4 372.172 86.76C372.892 85.48 373.932 84.4533 375.292 83.68C376.679 82.9067 378.172 82.52 379.772 82.52ZM399.766 86.04C400.486 85.0267 401.473 84.1867 402.726 83.52C404.006 82.8267 405.46 82.48 407.086 82.48C408.98 82.48 410.686 82.9467 412.206 83.88C413.753 84.8133 414.966 86.1467 415.846 87.88C416.753 89.5867 417.206 91.5733 417.206 93.84C417.206 96.1067 416.753 98.12 415.846 99.88C414.966 101.613 413.753 102.96 412.206 103.92C410.686 104.88 408.98 105.36 407.086 105.36C405.46 105.36 404.02 105.027 402.766 104.36C401.54 103.693 400.54 102.853 399.766 101.84V115.56H394.166V82.84H399.766V86.04ZM411.486 93.84C411.486 92.5067 411.206 91.36 410.646 90.4C410.113 89.4133 409.393 88.6667 408.486 88.16C407.606 87.6533 406.646 87.4 405.606 87.4C404.593 87.4 403.633 87.6667 402.726 88.2C401.846 88.7067 401.126 89.4533 400.566 90.44C400.033 91.4267 399.766 92.5867 399.766 93.92C399.766 95.2533 400.033 96.4133 400.566 97.4C401.126 98.3867 401.846 99.1467 402.726 99.68C403.633 100.187 404.593 100.44 405.606 100.44C406.646 100.44 407.606 100.173 408.486 99.64C409.393 99.1067 410.113 98.3467 410.646 97.36C411.206 96.3733 411.486 95.2 411.486 93.84ZM426.876 75.4V105H421.276V75.4H426.876ZM453.608 82.84L439.888 115.48H433.928L438.728 104.44L429.848 82.84H436.128L441.848 98.32L447.648 82.84H453.608ZM1.32 161.84C1.32 159.6 1.76 157.613 2.64 155.88C3.54667 154.147 4.77333 152.813 6.32 151.88C7.86667 150.947 9.58667 150.48 11.48 150.48C12.92 150.48 14.2933 150.8 15.6 151.44C16.9067 152.053 17.9467 152.88 18.72 153.92V143.4H24.4V173H18.72V169.72C18.0267 170.813 17.0533 171.693 15.8 172.36C14.5467 173.027 13.0933 173.36 11.44 173.36C9.57333 173.36 7.86667 172.88 6.32 171.92C4.77333 170.96 3.54667 169.613 2.64 167.88C1.76 166.12 1.32 164.107 1.32 161.84ZM18.76 161.92C18.76 160.56 18.4933 159.4 17.96 158.44C17.4267 157.453 16.7067 156.707 15.8 156.2C14.8933 155.667 13.92 155.4 12.88 155.4C11.84 155.4 10.88 155.653 10 156.16C9.12 156.667 8.4 157.413 7.84 158.4C7.30667 159.36 7.04 160.507 7.04 161.84C7.04 163.173 7.30667 164.347 7.84 165.36C8.4 166.347 9.12 167.107 10 167.64C10.9067 168.173 11.8667 168.44 12.88 168.44C13.92 168.44 14.8933 168.187 15.8 167.68C16.7067 167.147 17.4267 166.4 17.96 165.44C18.4933 164.453 18.76 163.28 18.76 161.92ZM50.7894 150.84V173H45.1494V170.2C44.4294 171.16 43.4827 171.92 42.3094 172.48C41.1627 173.013 39.9094 173.28 38.5494 173.28C36.816 173.28 35.2827 172.92 33.9494 172.2C32.616 171.453 31.5627 170.373 30.7894 168.96C30.0427 167.52 29.6694 165.813 29.6694 163.84V150.84H35.2694V163.04C35.2694 164.8 35.7094 166.16 36.5894 167.12C37.4694 168.053 38.6694 168.52 40.1894 168.52C41.736 168.52 42.9494 168.053 43.8294 167.12C44.7094 166.16 45.1494 164.8 45.1494 163.04V150.84H50.7894ZM83.8347 150.52C86.5547 150.52 88.7414 151.36 90.3947 153.04C92.0747 154.693 92.9147 157.013 92.9147 160V173H87.3147V160.76C87.3147 159.027 86.8747 157.707 85.9947 156.8C85.1147 155.867 83.9147 155.4 82.3947 155.4C80.8747 155.4 79.6614 155.867 78.7547 156.8C77.8747 157.707 77.4347 159.027 77.4347 160.76V173H71.8347V160.76C71.8347 159.027 71.3947 157.707 70.5147 156.8C69.6347 155.867 68.4347 155.4 66.9147 155.4C65.368 155.4 64.1414 155.867 63.2347 156.8C62.3547 157.707 61.9147 159.027 61.9147 160.76V173H56.3147V150.84H61.9147V153.52C62.6347 152.587 63.5547 151.853 64.6747 151.32C65.8214 150.787 67.0747 150.52 68.4347 150.52C70.168 150.52 71.7147 150.893 73.0747 151.64C74.4347 152.36 75.488 153.4 76.2347 154.76C76.9547 153.48 77.9947 152.453 79.3547 151.68C80.7414 150.907 82.2347 150.52 83.8347 150.52ZM125.749 150.52C128.469 150.52 130.655 151.36 132.309 153.04C133.989 154.693 134.829 157.013 134.829 160V173H129.229V160.76C129.229 159.027 128.789 157.707 127.909 156.8C127.029 155.867 125.829 155.4 124.309 155.4C122.789 155.4 121.575 155.867 120.669 156.8C119.789 157.707 119.349 159.027 119.349 160.76V173H113.749V160.76C113.749 159.027 113.309 157.707 112.429 156.8C111.549 155.867 110.349 155.4 108.829 155.4C107.282 155.4 106.055 155.867 105.149 156.8C104.269 157.707 103.829 159.027 103.829 160.76V173H98.2288V150.84H103.829V153.52C104.549 152.587 105.469 151.853 106.589 151.32C107.735 150.787 108.989 150.52 110.349 150.52C112.082 150.52 113.629 150.893 114.989 151.64C116.349 152.36 117.402 153.4 118.149 154.76C118.869 153.48 119.909 152.453 121.269 151.68C122.655 150.907 124.149 150.52 125.749 150.52ZM161.343 150.84L147.623 183.48H141.663L146.463 172.44L137.583 150.84H143.863L149.583 166.32L155.383 150.84H161.343ZM180.413 155.44V166.16C180.413 166.907 180.586 167.453 180.933 167.8C181.306 168.12 181.919 168.28 182.773 168.28H185.373V173H181.853C177.133 173 174.773 170.707 174.773 166.12V155.44H172.133V150.84H174.773V145.36H180.413V150.84H185.373V155.44H180.413ZM210.001 161.44C210.001 162.24 209.947 162.96 209.841 163.6H193.641C193.774 165.2 194.334 166.453 195.321 167.36C196.307 168.267 197.521 168.72 198.961 168.72C201.041 168.72 202.521 167.827 203.401 166.04H209.441C208.801 168.173 207.574 169.933 205.761 171.32C203.947 172.68 201.721 173.36 199.081 173.36C196.947 173.36 195.027 172.893 193.321 171.96C191.641 171 190.321 169.653 189.361 167.92C188.427 166.187 187.961 164.187 187.961 161.92C187.961 159.627 188.427 157.613 189.361 155.88C190.294 154.147 191.601 152.813 193.281 151.88C194.961 150.947 196.894 150.48 199.081 150.48C201.187 150.48 203.067 150.933 204.721 151.84C206.401 152.747 207.694 154.04 208.601 155.72C209.534 157.373 210.001 159.28 210.001 161.44ZM204.201 159.84C204.174 158.4 203.654 157.253 202.641 156.4C201.627 155.52 200.387 155.08 198.921 155.08C197.534 155.08 196.361 155.507 195.401 156.36C194.467 157.187 193.894 158.347 193.681 159.84H204.201ZM226.328 173L221.768 166.12L217.728 173H211.728L218.968 161.88L211.648 150.84H217.968L222.488 157.68L226.568 150.84H232.568L225.288 161.88L232.648 173H226.328ZM242.21 155.44V166.16C242.21 166.907 242.383 167.453 242.73 167.8C243.103 168.12 243.716 168.28 244.57 168.28H247.17V173H243.65C238.93 173 236.57 170.707 236.57 166.12V155.44H233.93V150.84H236.57V145.36H242.21V150.84H247.17V155.44H242.21ZM270.569 173.36C268.435 173.36 266.515 172.893 264.809 171.96C263.102 171 261.755 169.653 260.769 167.92C259.809 166.187 259.329 164.187 259.329 161.92C259.329 159.653 259.822 157.653 260.809 155.92C261.822 154.187 263.195 152.853 264.929 151.92C266.662 150.96 268.595 150.48 270.729 150.48C272.862 150.48 274.795 150.96 276.529 151.92C278.262 152.853 279.622 154.187 280.609 155.92C281.622 157.653 282.129 159.653 282.129 161.92C282.129 164.187 281.609 166.187 280.569 167.92C279.555 169.653 278.169 171 276.409 171.96C274.675 172.893 272.729 173.36 270.569 173.36ZM270.569 168.48C271.582 168.48 272.529 168.24 273.409 167.76C274.315 167.253 275.035 166.507 275.569 165.52C276.102 164.533 276.369 163.333 276.369 161.92C276.369 159.813 275.809 158.2 274.689 157.08C273.595 155.933 272.249 155.36 270.649 155.36C269.049 155.36 267.702 155.933 266.609 157.08C265.542 158.2 265.009 159.813 265.009 161.92C265.009 164.027 265.529 165.653 266.569 166.8C267.635 167.92 268.969 168.48 270.569 168.48ZM296.397 155.44H292.517V173H286.837V155.44H284.317V150.84H286.837V149.72C286.837 147 287.61 145 289.157 143.72C290.703 142.44 293.037 141.84 296.157 141.92V146.64C294.797 146.613 293.85 146.84 293.317 147.32C292.783 147.8 292.517 148.667 292.517 149.92V150.84H296.397V155.44ZM316.077 155.44V166.16C316.077 166.907 316.25 167.453 316.597 167.8C316.97 168.12 317.584 168.28 318.437 168.28H321.037V173H317.517C312.797 173 310.437 170.707 310.437 166.12V155.44H307.797V150.84H310.437V145.36H316.077V150.84H321.037V155.44H316.077ZM337.545 150.52C339.225 150.52 340.718 150.893 342.025 151.64C343.331 152.36 344.345 153.44 345.065 154.88C345.811 156.293 346.185 158 346.185 160V173H340.585V160.76C340.585 159 340.145 157.653 339.265 156.72C338.385 155.76 337.185 155.28 335.665 155.28C334.118 155.28 332.891 155.76 331.985 156.72C331.105 157.653 330.665 159 330.665 160.76V173H325.065V143.4H330.665V153.6C331.385 152.64 332.345 151.893 333.545 151.36C334.745 150.8 336.078 150.52 337.545 150.52ZM372.11 161.44C372.11 162.24 372.057 162.96 371.95 163.6H355.75C355.883 165.2 356.443 166.453 357.43 167.36C358.417 168.267 359.63 168.72 361.07 168.72C363.15 168.72 364.63 167.827 365.51 166.04H371.55C370.91 168.173 369.683 169.933 367.87 171.32C366.057 172.68 363.83 173.36 361.19 173.36C359.057 173.36 357.137 172.893 355.43 171.96C353.75 171 352.43 169.653 351.47 167.92C350.537 166.187 350.07 164.187 350.07 161.92C350.07 159.627 350.537 157.613 351.47 155.88C352.403 154.147 353.71 152.813 355.39 151.88C357.07 150.947 359.003 150.48 361.19 150.48C363.297 150.48 365.177 150.933 366.83 151.84C368.51 152.747 369.803 154.04 370.71 155.72C371.643 157.373 372.11 159.28 372.11 161.44ZM366.31 159.84C366.283 158.4 365.763 157.253 364.75 156.4C363.737 155.52 362.497 155.08 361.03 155.08C359.643 155.08 358.47 155.507 357.51 156.36C356.577 157.187 356.003 158.347 355.79 159.84H366.31ZM391.329 154.04C392.049 153.027 393.035 152.187 394.289 151.52C395.569 150.827 397.022 150.48 398.649 150.48C400.542 150.48 402.249 150.947 403.769 151.88C405.315 152.813 406.529 154.147 407.409 155.88C408.315 157.587 408.769 159.573 408.769 161.84C408.769 164.107 408.315 166.12 407.409 167.88C406.529 169.613 405.315 170.96 403.769 171.92C402.249 172.88 400.542 173.36 398.649 173.36C397.022 173.36 395.582 173.027 394.329 172.36C393.102 171.693 392.102 170.853 391.329 169.84V183.56H385.729V150.84H391.329V154.04ZM403.049 161.84C403.049 160.507 402.769 159.36 402.209 158.4C401.675 157.413 400.955 156.667 400.049 156.16C399.169 155.653 398.209 155.4 397.169 155.4C396.155 155.4 395.195 155.667 394.289 156.2C393.409 156.707 392.689 157.453 392.129 158.44C391.595 159.427 391.329 160.587 391.329 161.92C391.329 163.253 391.595 164.413 392.129 165.4C392.689 166.387 393.409 167.147 394.289 167.68C395.195 168.187 396.155 168.44 397.169 168.44C398.209 168.44 399.169 168.173 400.049 167.64C400.955 167.107 401.675 166.347 402.209 165.36C402.769 164.373 403.049 163.2 403.049 161.84ZM418.438 154.28C419.158 153.107 420.091 152.187 421.238 151.52C422.411 150.853 423.745 150.52 425.238 150.52V156.4H423.758C421.998 156.4 420.665 156.813 419.758 157.64C418.878 158.467 418.438 159.907 418.438 161.96V173H412.838V150.84H418.438V154.28ZM431.85 148.2C430.863 148.2 430.037 147.893 429.37 147.28C428.73 146.64 428.41 145.853 428.41 144.92C428.41 143.987 428.73 143.213 429.37 142.6C430.037 141.96 430.863 141.64 431.85 141.64C432.837 141.64 433.65 141.96 434.29 142.6C434.957 143.213 435.29 143.987 435.29 144.92C435.29 145.853 434.957 146.64 434.29 147.28C433.65 147.893 432.837 148.2 431.85 148.2ZM434.61 150.84V173H429.01V150.84H434.61ZM452.423 150.52C455.063 150.52 457.196 151.36 458.823 153.04C460.449 154.693 461.263 157.013 461.263 160V173H455.663V160.76C455.663 159 455.223 157.653 454.343 156.72C453.463 155.76 452.263 155.28 450.743 155.28C449.196 155.28 447.969 155.76 447.063 156.72C446.183 157.653 445.743 159 445.743 160.76V173H440.143V150.84H445.743V153.6C446.489 152.64 447.436 151.893 448.583 151.36C449.756 150.8 451.036 150.52 452.423 150.52ZM473.108 155.44V166.16C473.108 166.907 473.281 167.453 473.628 167.8C474.001 168.12 474.615 168.28 475.468 168.28H478.068V173H474.548C469.828 173 467.468 170.707 467.468 166.12V155.44H464.828V150.84H467.468V145.36H473.108V150.84H478.068V155.44H473.108ZM484.936 148.2C483.949 148.2 483.123 147.893 482.456 147.28C481.816 146.64 481.496 145.853 481.496 144.92C481.496 143.987 481.816 143.213 482.456 142.6C483.123 141.96 483.949 141.64 484.936 141.64C485.923 141.64 486.736 141.96 487.376 142.6C488.043 143.213 488.376 143.987 488.376 144.92C488.376 145.853 488.043 146.64 487.376 147.28C486.736 147.893 485.923 148.2 484.936 148.2ZM487.696 150.84V173H482.096V150.84H487.696ZM505.509 150.52C508.149 150.52 510.282 151.36 511.909 153.04C513.535 154.693 514.349 157.013 514.349 160V173H508.749V160.76C508.749 159 508.309 157.653 507.429 156.72C506.549 155.76 505.349 155.28 503.829 155.28C502.282 155.28 501.055 155.76 500.149 156.72C499.269 157.653 498.829 159 498.829 160.76V173H493.229V150.84H498.829V153.6C499.575 152.64 500.522 151.893 501.669 151.36C502.842 150.8 504.122 150.52 505.509 150.52ZM528.354 150.48C530.007 150.48 531.461 150.813 532.714 151.48C533.967 152.12 534.954 152.96 535.674 154V150.84H541.314V173.16C541.314 175.213 540.901 177.04 540.074 178.64C539.247 180.267 538.007 181.547 536.354 182.48C534.701 183.44 532.701 183.92 530.354 183.92C527.207 183.92 524.621 183.187 522.594 181.72C520.594 180.253 519.461 178.253 519.194 175.72H524.754C525.047 176.733 525.674 177.533 526.634 178.12C527.621 178.733 528.807 179.04 530.194 179.04C531.821 179.04 533.141 178.547 534.154 177.56C535.167 176.6 535.674 175.133 535.674 173.16V169.72C534.954 170.76 533.954 171.627 532.674 172.32C531.421 173.013 529.981 173.36 528.354 173.36C526.487 173.36 524.781 172.88 523.234 171.92C521.687 170.96 520.461 169.613 519.554 167.88C518.674 166.12 518.234 164.107 518.234 161.84C518.234 159.6 518.674 157.613 519.554 155.88C520.461 154.147 521.674 152.813 523.194 151.88C524.741 150.947 526.461 150.48 528.354 150.48ZM535.674 161.92C535.674 160.56 535.407 159.4 534.874 158.44C534.341 157.453 533.621 156.707 532.714 156.2C531.807 155.667 530.834 155.4 529.794 155.4C528.754 155.4 527.794 155.653 526.914 156.16C526.034 156.667 525.314 157.413 524.754 158.4C524.221 159.36 523.954 160.507 523.954 161.84C523.954 163.173 524.221 164.347 524.754 165.36C525.314 166.347 526.034 167.107 526.914 167.64C527.821 168.173 528.781 168.44 529.794 168.44C530.834 168.44 531.807 168.187 532.714 167.68C533.621 167.147 534.341 166.4 534.874 165.44C535.407 164.453 535.674 163.28 535.674 161.92ZM549.263 173.28C548.25 173.28 547.41 172.973 546.743 172.36C546.103 171.72 545.783 170.933 545.783 170C545.783 169.067 546.103 168.293 546.743 167.68C547.41 167.04 548.25 166.72 549.263 166.72C550.25 166.72 551.063 167.04 551.703 167.68C552.343 168.293 552.663 169.067 552.663 170C552.663 170.933 552.343 171.72 551.703 172.36C551.063 172.973 550.25 173.28 549.263 173.28Z" fill="#252525"/>
<path d="M3.024 242.668H7.416V244H1.386V231.454H3.024V242.668ZM13.4575 244.162C12.5335 244.162 11.6935 243.952 10.9375 243.532C10.1935 243.112 9.60553 242.518 9.17353 241.75C8.75353 240.97 8.54353 240.07 8.54353 239.05C8.54353 238.042 8.75953 237.154 9.19153 236.386C9.63553 235.606 10.2355 235.012 10.9915 234.604C11.7475 234.184 12.5935 233.974 13.5295 233.974C14.4655 233.974 15.3115 234.184 16.0675 234.604C16.8235 235.012 17.4175 235.6 17.8495 236.368C18.2935 237.136 18.5155 238.03 18.5155 239.05C18.5155 240.07 18.2875 240.97 17.8315 241.75C17.3875 242.518 16.7815 243.112 16.0135 243.532C15.2455 243.952 14.3935 244.162 13.4575 244.162ZM13.4575 242.722C14.0455 242.722 14.5975 242.584 15.1135 242.308C15.6295 242.032 16.0435 241.618 16.3555 241.066C16.6795 240.514 16.8415 239.842 16.8415 239.05C16.8415 238.258 16.6855 237.586 16.3735 237.034C16.0615 236.482 15.6535 236.074 15.1495 235.81C14.6455 235.534 14.0995 235.396 13.5115 235.396C12.9115 235.396 12.3595 235.534 11.8555 235.81C11.3635 236.074 10.9675 236.482 10.6675 237.034C10.3675 237.586 10.2175 238.258 10.2175 239.05C10.2175 239.854 10.3615 240.532 10.6495 241.084C10.9495 241.636 11.3455 242.05 11.8375 242.326C12.3295 242.59 12.8695 242.722 13.4575 242.722ZM22.3072 235.738C22.5952 235.174 23.0032 234.736 23.5312 234.424C24.0712 234.112 24.7252 233.956 25.4932 233.956V235.648H25.0612C23.2252 235.648 22.3072 236.644 22.3072 238.636V244H20.6692V234.136H22.3072V235.738ZM36.384 238.69C36.384 239.002 36.366 239.332 36.33 239.68H28.446C28.506 240.652 28.836 241.414 29.436 241.966C30.048 242.506 30.786 242.776 31.65 242.776C32.358 242.776 32.946 242.614 33.414 242.29C33.894 241.954 34.23 241.51 34.422 240.958H36.186C35.922 241.906 35.394 242.68 34.602 243.28C33.81 243.868 32.826 244.162 31.65 244.162C30.714 244.162 29.874 243.952 29.13 243.532C28.398 243.112 27.822 242.518 27.402 241.75C26.982 240.97 26.772 240.07 26.772 239.05C26.772 238.03 26.976 237.136 27.384 236.368C27.792 235.6 28.362 235.012 29.094 234.604C29.838 234.184 30.69 233.974 31.65 233.974C32.586 233.974 33.414 234.178 34.134 234.586C34.854 234.994 35.406 235.558 35.79 236.278C36.186 236.986 36.384 237.79 36.384 238.69ZM34.692 238.348C34.692 237.724 34.554 237.19 34.278 236.746C34.002 236.29 33.624 235.948 33.144 235.72C32.676 235.48 32.154 235.36 31.578 235.36C30.75 235.36 30.042 235.624 29.454 236.152C28.878 236.68 28.548 237.412 28.464 238.348H34.692ZM50.4082 233.956C51.1762 233.956 51.8602 234.118 52.4602 234.442C53.0602 234.754 53.5342 235.228 53.8822 235.864C54.2302 236.5 54.4042 237.274 54.4042 238.186V244H52.7842V238.42C52.7842 237.436 52.5382 236.686 52.0462 236.17C51.5662 235.642 50.9122 235.378 50.0842 235.378C49.2322 235.378 48.5542 235.654 48.0502 236.206C47.5462 236.746 47.2942 237.532 47.2942 238.564V244H45.6742V238.42C45.6742 237.436 45.4282 236.686 44.9362 236.17C44.4562 235.642 43.8022 235.378 42.9742 235.378C42.1222 235.378 41.4442 235.654 40.9402 236.206C40.4362 236.746 40.1842 237.532 40.1842 238.564V244H38.5462V234.136H40.1842V235.558C40.5082 235.042 40.9402 234.646 41.4802 234.37C42.0322 234.094 42.6382 233.956 43.2982 233.956C44.1262 233.956 44.8582 234.142 45.4942 234.514C46.1302 234.886 46.6042 235.432 46.9162 236.152C47.1922 235.456 47.6482 234.916 48.2842 234.532C48.9202 234.148 49.6282 233.956 50.4082 233.956ZM63.5279 231.454V244H61.8899V231.454H63.5279ZM67.9576 235.954C68.2816 235.39 68.7616 234.922 69.3976 234.55C70.0456 234.166 70.7956 233.974 71.6476 233.974C72.5236 233.974 73.3156 234.184 74.0236 234.604C74.7436 235.024 75.3076 235.618 75.7156 236.386C76.1236 237.142 76.3276 238.024 76.3276 239.032C76.3276 240.028 76.1236 240.916 75.7156 241.696C75.3076 242.476 74.7436 243.082 74.0236 243.514C73.3156 243.946 72.5236 244.162 71.6476 244.162C70.8076 244.162 70.0636 243.976 69.4156 243.604C68.7796 243.22 68.2936 242.746 67.9576 242.182V248.68H66.3196V234.136H67.9576V235.954ZM74.6536 239.032C74.6536 238.288 74.5036 237.64 74.2036 237.088C73.9036 236.536 73.4956 236.116 72.9796 235.828C72.4756 235.54 71.9176 235.396 71.3056 235.396C70.7056 235.396 70.1476 235.546 69.6316 235.846C69.1276 236.134 68.7196 236.56 68.4076 237.124C68.1076 237.676 67.9576 238.318 67.9576 239.05C67.9576 239.794 68.1076 240.448 68.4076 241.012C68.7196 241.564 69.1276 241.99 69.6316 242.29C70.1476 242.578 70.7056 242.722 71.3056 242.722C71.9176 242.722 72.4756 242.578 72.9796 242.29C73.4956 241.99 73.9036 241.564 74.2036 241.012C74.5036 240.448 74.6536 239.788 74.6536 239.032ZM81.9757 244.162C81.2197 244.162 80.5417 244.036 79.9417 243.784C79.3417 243.52 78.8677 243.16 78.5197 242.704C78.1717 242.236 77.9797 241.702 77.9437 241.102H79.6357C79.6837 241.594 79.9117 241.996 80.3197 242.308C80.7397 242.62 81.2857 242.776 81.9577 242.776C82.5817 242.776 83.0737 242.638 83.4337 242.362C83.7937 242.086 83.9737 241.738 83.9737 241.318C83.9737 240.886 83.7817 240.568 83.3977 240.364C83.0137 240.148 82.4197 239.938 81.6157 239.734C80.8837 239.542 80.2837 239.35 79.8157 239.158C79.3597 238.954 78.9637 238.66 78.6277 238.276C78.3037 237.88 78.1417 237.364 78.1417 236.728C78.1417 236.224 78.2917 235.762 78.5917 235.342C78.8917 234.922 79.3177 234.592 79.8697 234.352C80.4217 234.1 81.0517 233.974 81.7597 233.974C82.8517 233.974 83.7337 234.25 84.4057 234.802C85.0777 235.354 85.4377 236.11 85.4857 237.07H83.8477C83.8117 236.554 83.6017 236.14 83.2177 235.828C82.8457 235.516 82.3417 235.36 81.7057 235.36C81.1177 235.36 80.6497 235.486 80.3017 235.738C79.9537 235.99 79.7797 236.32 79.7797 236.728C79.7797 237.052 79.8817 237.322 80.0857 237.538C80.3017 237.742 80.5657 237.91 80.8777 238.042C81.2017 238.162 81.6457 238.3 82.2097 238.456C82.9177 238.648 83.4937 238.84 83.9377 239.032C84.3817 239.212 84.7597 239.488 85.0717 239.86C85.3957 240.232 85.5637 240.718 85.5757 241.318C85.5757 241.858 85.4257 242.344 85.1257 242.776C84.8257 243.208 84.3997 243.55 83.8477 243.802C83.3077 244.042 82.6837 244.162 81.9757 244.162ZM96.636 234.136V244H94.998V242.542C94.686 243.046 94.248 243.442 93.684 243.73C93.132 244.006 92.52 244.144 91.848 244.144C91.08 244.144 90.39 243.988 89.778 243.676C89.166 243.352 88.68 242.872 88.32 242.236C87.972 241.6 87.798 240.826 87.798 239.914V234.136H89.418V239.698C89.418 240.67 89.664 241.42 90.156 241.948C90.648 242.464 91.32 242.722 92.172 242.722C93.048 242.722 93.738 242.452 94.242 241.912C94.746 241.372 94.998 240.586 94.998 239.554V234.136H96.636ZM111.264 233.956C112.032 233.956 112.716 234.118 113.316 234.442C113.916 234.754 114.39 235.228 114.738 235.864C115.086 236.5 115.26 237.274 115.26 238.186V244H113.64V238.42C113.64 237.436 113.394 236.686 112.902 236.17C112.422 235.642 111.768 235.378 110.94 235.378C110.088 235.378 109.41 235.654 108.906 236.206C108.402 236.746 108.15 237.532 108.15 238.564V244H106.53V238.42C106.53 237.436 106.284 236.686 105.792 236.17C105.312 235.642 104.658 235.378 103.83 235.378C102.978 235.378 102.3 235.654 101.796 236.206C101.292 236.746 101.04 237.532 101.04 238.564V244H99.4016V234.136H101.04V235.558C101.364 235.042 101.796 234.646 102.336 234.37C102.888 234.094 103.494 233.956 104.154 233.956C104.982 233.956 105.714 234.142 106.35 234.514C106.986 234.886 107.46 235.432 107.772 236.152C108.048 235.456 108.504 234.916 109.14 234.532C109.776 234.148 110.484 233.956 111.264 233.956ZM123.591 232.534C123.279 232.534 123.015 232.426 122.799 232.21C122.583 231.994 122.475 231.73 122.475 231.418C122.475 231.106 122.583 230.842 122.799 230.626C123.015 230.41 123.279 230.302 123.591 230.302C123.891 230.302 124.143 230.41 124.347 230.626C124.563 230.842 124.671 231.106 124.671 231.418C124.671 231.73 124.563 231.994 124.347 232.21C124.143 232.426 123.891 232.534 123.591 232.534ZM124.383 234.136V244H122.745V234.136H124.383ZM130.667 244.162C129.911 244.162 129.233 244.036 128.633 243.784C128.033 243.52 127.559 243.16 127.211 242.704C126.863 242.236 126.671 241.702 126.635 241.102H128.327C128.375 241.594 128.603 241.996 129.011 242.308C129.431 242.62 129.977 242.776 130.649 242.776C131.273 242.776 131.765 242.638 132.125 242.362C132.485 242.086 132.665 241.738 132.665 241.318C132.665 240.886 132.473 240.568 132.089 240.364C131.705 240.148 131.111 239.938 130.307 239.734C129.575 239.542 128.975 239.35 128.507 239.158C128.051 238.954 127.655 238.66 127.319 238.276C126.995 237.88 126.833 237.364 126.833 236.728C126.833 236.224 126.983 235.762 127.283 235.342C127.583 234.922 128.009 234.592 128.561 234.352C129.113 234.1 129.743 233.974 130.451 233.974C131.543 233.974 132.425 234.25 133.097 234.802C133.769 235.354 134.129 236.11 134.177 237.07H132.539C132.503 236.554 132.293 236.14 131.909 235.828C131.537 235.516 131.033 235.36 130.397 235.36C129.809 235.36 129.341 235.486 128.993 235.738C128.645 235.99 128.471 236.32 128.471 236.728C128.471 237.052 128.573 237.322 128.777 237.538C128.993 237.742 129.257 237.91 129.569 238.042C129.893 238.162 130.337 238.3 130.901 238.456C131.609 238.648 132.185 238.84 132.629 239.032C133.073 239.212 133.451 239.488 133.763 239.86C134.087 240.232 134.255 240.718 134.267 241.318C134.267 241.858 134.117 242.344 133.817 242.776C133.517 243.208 133.091 243.55 132.539 243.802C131.999 244.042 131.375 244.162 130.667 244.162ZM144.87 244.162C144.114 244.162 143.436 244.036 142.836 243.784C142.236 243.52 141.762 243.16 141.414 242.704C141.066 242.236 140.874 241.702 140.838 241.102H142.53C142.578 241.594 142.806 241.996 143.214 242.308C143.634 242.62 144.18 242.776 144.852 242.776C145.476 242.776 145.968 242.638 146.328 242.362C146.688 242.086 146.868 241.738 146.868 241.318C146.868 240.886 146.676 240.568 146.292 240.364C145.908 240.148 145.314 239.938 144.51 239.734C143.778 239.542 143.178 239.35 142.71 239.158C142.254 238.954 141.858 238.66 141.522 238.276C141.198 237.88 141.036 237.364 141.036 236.728C141.036 236.224 141.186 235.762 141.486 235.342C141.786 234.922 142.212 234.592 142.764 234.352C143.316 234.1 143.946 233.974 144.654 233.974C145.746 233.974 146.628 234.25 147.3 234.802C147.972 235.354 148.332 236.11 148.38 237.07H146.742C146.706 236.554 146.496 236.14 146.112 235.828C145.74 235.516 145.236 235.36 144.6 235.36C144.012 235.36 143.544 235.486 143.196 235.738C142.848 235.99 142.674 236.32 142.674 236.728C142.674 237.052 142.776 237.322 142.98 237.538C143.196 237.742 143.46 237.91 143.772 238.042C144.096 238.162 144.54 238.3 145.104 238.456C145.812 238.648 146.388 238.84 146.832 239.032C147.276 239.212 147.654 239.488 147.966 239.86C148.29 240.232 148.458 240.718 148.47 241.318C148.47 241.858 148.32 242.344 148.02 242.776C147.72 243.208 147.294 243.55 146.742 243.802C146.202 244.042 145.578 244.162 144.87 244.162ZM151.628 232.534C151.316 232.534 151.052 232.426 150.836 232.21C150.62 231.994 150.512 231.73 150.512 231.418C150.512 231.106 150.62 230.842 150.836 230.626C151.052 230.41 151.316 230.302 151.628 230.302C151.928 230.302 152.18 230.41 152.384 230.626C152.6 230.842 152.708 231.106 152.708 231.418C152.708 231.73 152.6 231.994 152.384 232.21C152.18 232.426 151.928 232.534 151.628 232.534ZM152.42 234.136V244H150.782V234.136H152.42ZM167.074 233.956C167.842 233.956 168.526 234.118 169.126 234.442C169.726 234.754 170.2 235.228 170.548 235.864C170.896 236.5 171.07 237.274 171.07 238.186V244H169.45V238.42C169.45 237.436 169.204 236.686 168.712 236.17C168.232 235.642 167.578 235.378 166.75 235.378C165.898 235.378 165.22 235.654 164.716 236.206C164.212 236.746 163.96 237.532 163.96 238.564V244H162.34V238.42C162.34 237.436 162.094 236.686 161.602 236.17C161.122 235.642 160.468 235.378 159.64 235.378C158.788 235.378 158.11 235.654 157.606 236.206C157.102 236.746 156.85 237.532 156.85 238.564V244H155.212V234.136H156.85V235.558C157.174 235.042 157.606 234.646 158.146 234.37C158.698 234.094 159.304 233.956 159.964 233.956C160.792 233.956 161.524 234.142 162.16 234.514C162.796 234.886 163.27 235.432 163.582 236.152C163.858 235.456 164.314 234.916 164.95 234.532C165.586 234.148 166.294 233.956 167.074 233.956ZM175.395 235.954C175.719 235.39 176.199 234.922 176.835 234.55C177.483 234.166 178.233 233.974 179.085 233.974C179.961 233.974 180.753 234.184 181.461 234.604C182.181 235.024 182.745 235.618 183.153 236.386C183.561 237.142 183.765 238.024 183.765 239.032C183.765 240.028 183.561 240.916 183.153 241.696C182.745 242.476 182.181 243.082 181.461 243.514C180.753 243.946 179.961 244.162 179.085 244.162C178.245 244.162 177.501 243.976 176.853 243.604C176.217 243.22 175.731 242.746 175.395 242.182V248.68H173.757V234.136H175.395V235.954ZM182.091 239.032C182.091 238.288 181.941 237.64 181.641 237.088C181.341 236.536 180.933 236.116 180.417 235.828C179.913 235.54 179.355 235.396 178.743 235.396C178.143 235.396 177.585 235.546 177.069 235.846C176.565 236.134 176.157 236.56 175.845 237.124C175.545 237.676 175.395 238.318 175.395 239.05C175.395 239.794 175.545 240.448 175.845 241.012C176.157 241.564 176.565 241.99 177.069 242.29C177.585 242.578 178.143 242.722 178.743 242.722C179.355 242.722 179.913 242.578 180.417 242.29C180.933 241.99 181.341 241.564 181.641 241.012C181.941 240.448 182.091 239.788 182.091 239.032ZM187.559 230.68V244H185.921V230.68H187.559ZM198.847 234.136L192.907 248.644H191.215L193.159 243.892L189.181 234.136H190.999L194.095 242.128L197.155 234.136H198.847ZM204.68 239.032C204.68 238.024 204.884 237.142 205.292 236.386C205.7 235.618 206.258 235.024 206.966 234.604C207.686 234.184 208.49 233.974 209.378 233.974C210.146 233.974 210.86 234.154 211.52 234.514C212.18 234.862 212.684 235.324 213.032 235.9V230.68H214.688V244H213.032V242.146C212.708 242.734 212.228 243.22 211.592 243.604C210.956 243.976 210.212 244.162 209.36 244.162C208.484 244.162 207.686 243.946 206.966 243.514C206.258 243.082 205.7 242.476 205.292 241.696C204.884 240.916 204.68 240.028 204.68 239.032ZM213.032 239.05C213.032 238.306 212.882 237.658 212.582 237.106C212.282 236.554 211.874 236.134 211.358 235.846C210.854 235.546 210.296 235.396 209.684 235.396C209.072 235.396 208.514 235.54 208.01 235.828C207.506 236.116 207.104 236.536 206.804 237.088C206.504 237.64 206.354 238.288 206.354 239.032C206.354 239.788 206.504 240.448 206.804 241.012C207.104 241.564 207.506 241.99 208.01 242.29C208.514 242.578 209.072 242.722 209.684 242.722C210.296 242.722 210.854 242.578 211.358 242.29C211.874 241.99 212.282 241.564 212.582 241.012C212.882 240.448 213.032 239.794 213.032 239.05ZM226.204 234.136V244H224.566V242.542C224.254 243.046 223.816 243.442 223.252 243.73C222.7 244.006 222.088 244.144 221.416 244.144C220.648 244.144 219.958 243.988 219.346 243.676C218.734 243.352 218.248 242.872 217.888 242.236C217.54 241.6 217.366 240.826 217.366 239.914V234.136H218.986V239.698C218.986 240.67 219.232 241.42 219.724 241.948C220.216 242.464 220.888 242.722 221.74 242.722C222.616 242.722 223.306 242.452 223.81 241.912C224.314 241.372 224.566 240.586 224.566 239.554V234.136H226.204ZM240.832 233.956C241.6 233.956 242.284 234.118 242.884 234.442C243.484 234.754 243.958 235.228 244.306 235.864C244.654 236.5 244.828 237.274 244.828 238.186V244H243.208V238.42C243.208 237.436 242.962 236.686 242.47 236.17C241.99 235.642 241.336 235.378 240.508 235.378C239.656 235.378 238.978 235.654 238.474 236.206C237.97 236.746 237.718 237.532 237.718 238.564V244H236.098V238.42C236.098 237.436 235.852 236.686 235.36 236.17C234.88 235.642 234.226 235.378 233.398 235.378C232.546 235.378 231.868 235.654 231.364 236.206C230.86 236.746 230.608 237.532 230.608 238.564V244H228.97V234.136H230.608V235.558C230.932 235.042 231.364 234.646 231.904 234.37C232.456 234.094 233.062 233.956 233.722 233.956C234.55 233.956 235.282 234.142 235.918 234.514C236.554 234.886 237.028 235.432 237.34 236.152C237.616 235.456 238.072 234.916 238.708 234.532C239.344 234.148 240.052 233.956 240.832 233.956ZM259.377 233.956C260.145 233.956 260.829 234.118 261.429 234.442C262.029 234.754 262.503 235.228 262.851 235.864C263.199 236.5 263.373 237.274 263.373 238.186V244H261.753V238.42C261.753 237.436 261.507 236.686 261.015 236.17C260.535 235.642 259.881 235.378 259.053 235.378C258.201 235.378 257.523 235.654 257.019 236.206C256.515 236.746 256.263 237.532 256.263 238.564V244H254.643V238.42C254.643 237.436 254.397 236.686 253.905 236.17C253.425 235.642 252.771 235.378 251.943 235.378C251.091 235.378 250.413 235.654 249.909 236.206C249.405 236.746 249.153 237.532 249.153 238.564V244H247.515V234.136H249.153V235.558C249.477 235.042 249.909 234.646 250.449 234.37C251.001 234.094 251.607 233.956 252.267 233.956C253.095 233.956 253.827 234.142 254.463 234.514C255.099 234.886 255.573 235.432 255.885 236.152C256.161 235.456 256.617 234.916 257.253 234.532C257.889 234.148 258.597 233.956 259.377 233.956ZM274.556 234.136L268.616 248.644H266.924L268.868 243.892L264.89 234.136H266.708L269.804 242.128L272.864 234.136H274.556ZM282.999 235.486V241.3C282.999 241.78 283.101 242.122 283.305 242.326C283.509 242.518 283.863 242.614 284.367 242.614H285.573V244H284.097C283.185 244 282.501 243.79 282.045 243.37C281.589 242.95 281.361 242.26 281.361 241.3V235.486H280.083V234.136H281.361V231.652H282.999V234.136H285.573V235.486H282.999ZM296.558 238.69C296.558 239.002 296.54 239.332 296.504 239.68H288.62C288.68 240.652 289.01 241.414 289.61 241.966C290.222 242.506 290.96 242.776 291.824 242.776C292.532 242.776 293.12 242.614 293.588 242.29C294.068 241.954 294.404 241.51 294.596 240.958H296.36C296.096 241.906 295.568 242.68 294.776 243.28C293.984 243.868 293 244.162 291.824 244.162C290.888 244.162 290.048 243.952 289.304 243.532C288.572 243.112 287.996 242.518 287.576 241.75C287.156 240.97 286.946 240.07 286.946 239.05C286.946 238.03 287.15 237.136 287.558 236.368C287.966 235.6 288.536 235.012 289.268 234.604C290.012 234.184 290.864 233.974 291.824 233.974C292.76 233.974 293.588 234.178 294.308 234.586C295.028 234.994 295.58 235.558 295.964 236.278C296.36 236.986 296.558 237.79 296.558 238.69ZM294.866 238.348C294.866 237.724 294.728 237.19 294.452 236.746C294.176 236.29 293.798 235.948 293.318 235.72C292.85 235.48 292.328 235.36 291.752 235.36C290.924 235.36 290.216 235.624 289.628 236.152C289.052 236.68 288.722 237.412 288.638 238.348H294.866ZM303.868 244L301.528 240.328L299.278 244H297.568L300.754 239.104L297.568 234.136H299.422L301.762 237.79L303.994 234.136H305.704L302.536 239.014L305.722 244H303.868ZM309.331 235.486V241.3C309.331 241.78 309.433 242.122 309.637 242.326C309.841 242.518 310.195 242.614 310.699 242.614H311.905V244H310.429C309.517 244 308.833 243.79 308.377 243.37C307.921 242.95 307.693 242.26 307.693 241.3V235.486H306.415V234.136H307.693V231.652H309.331V234.136H311.905V235.486H309.331ZM322.991 244.162C322.067 244.162 321.227 243.952 320.471 243.532C319.727 243.112 319.139 242.518 318.707 241.75C318.287 240.97 318.077 240.07 318.077 239.05C318.077 238.042 318.293 237.154 318.725 236.386C319.169 235.606 319.769 235.012 320.525 234.604C321.281 234.184 322.127 233.974 323.063 233.974C323.999 233.974 324.845 234.184 325.601 234.604C326.357 235.012 326.951 235.6 327.383 236.368C327.827 237.136 328.049 238.03 328.049 239.05C328.049 240.07 327.821 240.97 327.365 241.75C326.921 242.518 326.315 243.112 325.547 243.532C324.779 243.952 323.927 244.162 322.991 244.162ZM322.991 242.722C323.579 242.722 324.131 242.584 324.647 242.308C325.163 242.032 325.577 241.618 325.889 241.066C326.213 240.514 326.375 239.842 326.375 239.05C326.375 238.258 326.219 237.586 325.907 237.034C325.595 236.482 325.187 236.074 324.683 235.81C324.179 235.534 323.633 235.396 323.045 235.396C322.445 235.396 321.893 235.534 321.389 235.81C320.897 236.074 320.501 236.482 320.201 237.034C319.901 237.586 319.751 238.258 319.751 239.05C319.751 239.854 319.895 240.532 320.183 241.084C320.483 241.636 320.879 242.05 321.371 242.326C321.863 242.59 322.403 242.722 322.991 242.722ZM334.216 235.486H332.146V244H330.508V235.486H329.23V234.136H330.508V233.434C330.508 232.33 330.79 231.526 331.354 231.022C331.93 230.506 332.848 230.248 334.108 230.248V231.616C333.388 231.616 332.878 231.76 332.578 232.048C332.29 232.324 332.146 232.786 332.146 233.434V234.136H334.216V235.486ZM342.923 235.486V241.3C342.923 241.78 343.025 242.122 343.229 242.326C343.433 242.518 343.787 242.614 344.291 242.614H345.497V244H344.021C343.109 244 342.425 243.79 341.969 243.37C341.513 242.95 341.285 242.26 341.285 241.3V235.486H340.007V234.136H341.285V231.652H342.923V234.136H345.497V235.486H342.923ZM352.378 233.956C353.122 233.956 353.794 234.118 354.394 234.442C354.994 234.754 355.462 235.228 355.798 235.864C356.146 236.5 356.32 237.274 356.32 238.186V244H354.7V238.42C354.7 237.436 354.454 236.686 353.962 236.17C353.47 235.642 352.798 235.378 351.946 235.378C351.082 235.378 350.392 235.648 349.876 236.188C349.372 236.728 349.12 237.514 349.12 238.546V244H347.482V230.68H349.12V235.54C349.444 235.036 349.888 234.646 350.452 234.37C351.028 234.094 351.67 233.956 352.378 233.956ZM367.995 238.69C367.995 239.002 367.977 239.332 367.941 239.68H360.057C360.117 240.652 360.447 241.414 361.047 241.966C361.659 242.506 362.397 242.776 363.261 242.776C363.969 242.776 364.557 242.614 365.025 242.29C365.505 241.954 365.841 241.51 366.033 240.958H367.797C367.533 241.906 367.005 242.68 366.213 243.28C365.421 243.868 364.437 244.162 363.261 244.162C362.325 244.162 361.485 243.952 360.741 243.532C360.009 243.112 359.433 242.518 359.013 241.75C358.593 240.97 358.383 240.07 358.383 239.05C358.383 238.03 358.587 237.136 358.995 236.368C359.403 235.6 359.973 235.012 360.705 234.604C361.449 234.184 362.301 233.974 363.261 233.974C364.197 233.974 365.025 234.178 365.745 234.586C366.465 234.994 367.017 235.558 367.401 236.278C367.797 236.986 367.995 237.79 367.995 238.69ZM366.303 238.348C366.303 237.724 366.165 237.19 365.889 236.746C365.613 236.29 365.235 235.948 364.755 235.72C364.287 235.48 363.765 235.36 363.189 235.36C362.361 235.36 361.653 235.624 361.065 236.152C360.489 236.68 360.159 237.412 360.075 238.348H366.303ZM376.594 235.954C376.918 235.39 377.398 234.922 378.034 234.55C378.682 234.166 379.432 233.974 380.284 233.974C381.16 233.974 381.952 234.184 382.66 234.604C383.38 235.024 383.944 235.618 384.352 236.386C384.76 237.142 384.964 238.024 384.964 239.032C384.964 240.028 384.76 240.916 384.352 241.696C383.944 242.476 383.38 243.082 382.66 243.514C381.952 243.946 381.16 244.162 380.284 244.162C379.444 244.162 378.7 243.976 378.052 243.604C377.416 243.22 376.93 242.746 376.594 242.182V248.68H374.956V234.136H376.594V235.954ZM383.29 239.032C383.29 238.288 383.14 237.64 382.84 237.088C382.54 236.536 382.132 236.116 381.616 235.828C381.112 235.54 380.554 235.396 379.942 235.396C379.342 235.396 378.784 235.546 378.268 235.846C377.764 236.134 377.356 236.56 377.044 237.124C376.744 237.676 376.594 238.318 376.594 239.05C376.594 239.794 376.744 240.448 377.044 241.012C377.356 241.564 377.764 241.99 378.268 242.29C378.784 242.578 379.342 242.722 379.942 242.722C380.554 242.722 381.112 242.578 381.616 242.29C382.132 241.99 382.54 241.564 382.84 241.012C383.14 240.448 383.29 239.788 383.29 239.032ZM388.758 235.738C389.046 235.174 389.454 234.736 389.982 234.424C390.522 234.112 391.176 233.956 391.944 233.956V235.648H391.512C389.676 235.648 388.758 236.644 388.758 238.636V244H387.12V234.136H388.758V235.738ZM394.681 232.534C394.369 232.534 394.105 232.426 393.889 232.21C393.673 231.994 393.565 231.73 393.565 231.418C393.565 231.106 393.673 230.842 393.889 230.626C394.105 230.41 394.369 230.302 394.681 230.302C394.981 230.302 395.233 230.41 395.437 230.626C395.653 230.842 395.761 231.106 395.761 231.418C395.761 231.73 395.653 231.994 395.437 232.21C395.233 232.426 394.981 232.534 394.681 232.534ZM395.473 234.136V244H393.835V234.136H395.473ZM403.071 233.956C404.271 233.956 405.243 234.322 405.987 235.054C406.731 235.774 407.103 236.818 407.103 238.186V244H405.483V238.42C405.483 237.436 405.237 236.686 404.745 236.17C404.253 235.642 403.581 235.378 402.729 235.378C401.865 235.378 401.175 235.648 400.659 236.188C400.155 236.728 399.903 237.514 399.903 238.546V244H398.265V234.136H399.903V235.54C400.227 235.036 400.665 234.646 401.217 234.37C401.781 234.094 402.399 233.956 403.071 233.956ZM411.777 235.486V241.3C411.777 241.78 411.879 242.122 412.083 242.326C412.287 242.518 412.641 242.614 413.145 242.614H414.351V244H412.875C411.963 244 411.279 243.79 410.823 243.37C410.367 242.95 410.139 242.26 410.139 241.3V235.486H408.861V234.136H410.139V231.652H411.777V234.136H414.351V235.486H411.777ZM417.181 232.534C416.869 232.534 416.605 232.426 416.389 232.21C416.173 231.994 416.065 231.73 416.065 231.418C416.065 231.106 416.173 230.842 416.389 230.626C416.605 230.41 416.869 230.302 417.181 230.302C417.481 230.302 417.733 230.41 417.937 230.626C418.153 230.842 418.261 231.106 418.261 231.418C418.261 231.73 418.153 231.994 417.937 232.21C417.733 232.426 417.481 232.534 417.181 232.534ZM417.973 234.136V244H416.335V234.136H417.973ZM425.571 233.956C426.771 233.956 427.743 234.322 428.487 235.054C429.231 235.774 429.603 236.818 429.603 238.186V244H427.983V238.42C427.983 237.436 427.737 236.686 427.245 236.17C426.753 235.642 426.081 235.378 425.229 235.378C424.365 235.378 423.675 235.648 423.159 236.188C422.655 236.728 422.403 237.514 422.403 238.546V244H420.765V234.136H422.403V235.54C422.727 235.036 423.165 234.646 423.717 234.37C424.281 234.094 424.899 233.956 425.571 233.956ZM436.347 233.974C437.199 233.974 437.943 234.16 438.579 234.532C439.227 234.904 439.707 235.372 440.019 235.936V234.136H441.675V244.216C441.675 245.116 441.483 245.914 441.099 246.61C440.715 247.318 440.163 247.87 439.443 248.266C438.735 248.662 437.907 248.86 436.959 248.86C435.663 248.86 434.583 248.554 433.719 247.942C432.855 247.33 432.345 246.496 432.189 245.44H433.809C433.989 246.04 434.361 246.52 434.925 246.88C435.489 247.252 436.167 247.438 436.959 247.438C437.859 247.438 438.591 247.156 439.155 246.592C439.731 246.028 440.019 245.236 440.019 244.216V242.146C439.695 242.722 439.215 243.202 438.579 243.586C437.943 243.97 437.199 244.162 436.347 244.162C435.471 244.162 434.673 243.946 433.953 243.514C433.245 243.082 432.687 242.476 432.279 241.696C431.871 240.916 431.667 240.028 431.667 239.032C431.667 238.024 431.871 237.142 432.279 236.386C432.687 235.618 433.245 235.024 433.953 234.604C434.673 234.184 435.471 233.974 436.347 233.974ZM440.019 239.05C440.019 238.306 439.869 237.658 439.569 237.106C439.269 236.554 438.861 236.134 438.345 235.846C437.841 235.546 437.283 235.396 436.671 235.396C436.059 235.396 435.501 235.54 434.997 235.828C434.493 236.116 434.091 236.536 433.791 237.088C433.491 237.64 433.341 238.288 433.341 239.032C433.341 239.788 433.491 240.448 433.791 241.012C434.091 241.564 434.493 241.99 434.997 242.29C435.501 242.578 436.059 242.722 436.671 242.722C437.283 242.722 437.841 242.578 438.345 242.29C438.861 241.99 439.269 241.564 439.569 241.012C439.869 240.448 440.019 239.794 440.019 239.05ZM0.774 271.032C0.774 270.024 0.978 269.142 1.386 268.386C1.794 267.618 2.352 267.024 3.06 266.604C3.78 266.184 4.578 265.974 5.454 265.974C6.318 265.974 7.068 266.16 7.704 266.532C8.34 266.904 8.814 267.372 9.126 267.936V266.136H10.782V276H9.126V274.164C8.802 274.74 8.316 275.22 7.668 275.604C7.032 275.976 6.288 276.162 5.436 276.162C4.56 276.162 3.768 275.946 3.06 275.514C2.352 275.082 1.794 274.476 1.386 273.696C0.978 272.916 0.774 272.028 0.774 271.032ZM9.126 271.05C9.126 270.306 8.976 269.658 8.676 269.106C8.376 268.554 7.968 268.134 7.452 267.846C6.948 267.546 6.39 267.396 5.778 267.396C5.166 267.396 4.608 267.54 4.104 267.828C3.6 268.116 3.198 268.536 2.898 269.088C2.598 269.64 2.448 270.288 2.448 271.032C2.448 271.788 2.598 272.448 2.898 273.012C3.198 273.564 3.6 273.99 4.104 274.29C4.608 274.578 5.166 274.722 5.778 274.722C6.39 274.722 6.948 274.578 7.452 274.29C7.968 273.99 8.376 273.564 8.676 273.012C8.976 272.448 9.126 271.794 9.126 271.05ZM18.3561 265.956C19.5561 265.956 20.5281 266.322 21.2721 267.054C22.0161 267.774 22.3881 268.818 22.3881 270.186V276H20.7681V270.42C20.7681 269.436 20.5221 268.686 20.0301 268.17C19.5381 267.642 18.8661 267.378 18.0141 267.378C17.1501 267.378 16.4601 267.648 15.9441 268.188C15.4401 268.728 15.1881 269.514 15.1881 270.546V276H13.5501V266.136H15.1881V267.54C15.5121 267.036 15.9501 266.646 16.5021 266.37C17.0661 266.094 17.6841 265.956 18.3561 265.956ZM24.4517 271.032C24.4517 270.024 24.6557 269.142 25.0637 268.386C25.4717 267.618 26.0297 267.024 26.7377 266.604C27.4577 266.184 28.2617 265.974 29.1497 265.974C29.9177 265.974 30.6317 266.154 31.2917 266.514C31.9517 266.862 32.4557 267.324 32.8037 267.9V262.68H34.4597V276H32.8037V274.146C32.4797 274.734 31.9997 275.22 31.3637 275.604C30.7277 275.976 29.9837 276.162 29.1317 276.162C28.2557 276.162 27.4577 275.946 26.7377 275.514C26.0297 275.082 25.4717 274.476 25.0637 273.696C24.6557 272.916 24.4517 272.028 24.4517 271.032ZM32.8037 271.05C32.8037 270.306 32.6537 269.658 32.3537 269.106C32.0537 268.554 31.6457 268.134 31.1297 267.846C30.6257 267.546 30.0677 267.396 29.4557 267.396C28.8437 267.396 28.2857 267.54 27.7817 267.828C27.2777 268.116 26.8757 268.536 26.5757 269.088C26.2757 269.64 26.1257 270.288 26.1257 271.032C26.1257 271.788 26.2757 272.448 26.5757 273.012C26.8757 273.564 27.2777 273.99 27.7817 274.29C28.2857 274.578 28.8437 274.722 29.4557 274.722C30.0677 274.722 30.6257 274.578 31.1297 274.29C31.6457 273.99 32.0537 273.564 32.3537 273.012C32.6537 272.448 32.8037 271.794 32.8037 271.05ZM44.0246 267.486V273.3C44.0246 273.78 44.1266 274.122 44.3306 274.326C44.5346 274.518 44.8886 274.614 45.3926 274.614H46.5986V276H45.1226C44.2106 276 43.5266 275.79 43.0706 275.37C42.6146 274.95 42.3866 274.26 42.3866 273.3V267.486H41.1086V266.136H42.3866V263.652H44.0246V266.136H46.5986V267.486H44.0246ZM57.0793 266.136L51.1393 280.644H49.4473L51.3913 275.892L47.4133 266.136H49.2313L52.3273 274.128L55.3873 266.136H57.0793ZM60.3638 267.954C60.6878 267.39 61.1678 266.922 61.8038 266.55C62.4518 266.166 63.2018 265.974 64.0538 265.974C64.9298 265.974 65.7218 266.184 66.4298 266.604C67.1498 267.024 67.7138 267.618 68.1218 268.386C68.5298 269.142 68.7338 270.024 68.7338 271.032C68.7338 272.028 68.5298 272.916 68.1218 273.696C67.7138 274.476 67.1498 275.082 66.4298 275.514C65.7218 275.946 64.9298 276.162 64.0538 276.162C63.2138 276.162 62.4698 275.976 61.8218 275.604C61.1858 275.22 60.6998 274.746 60.3638 274.182V280.68H58.7258V266.136H60.3638V267.954ZM67.0598 271.032C67.0598 270.288 66.9098 269.64 66.6098 269.088C66.3098 268.536 65.9018 268.116 65.3858 267.828C64.8818 267.54 64.3238 267.396 63.7118 267.396C63.1118 267.396 62.5538 267.546 62.0378 267.846C61.5338 268.134 61.1258 268.56 60.8138 269.124C60.5138 269.676 60.3638 270.318 60.3638 271.05C60.3638 271.794 60.5138 272.448 60.8138 273.012C61.1258 273.564 61.5338 273.99 62.0378 274.29C62.5538 274.578 63.1118 274.722 63.7118 274.722C64.3238 274.722 64.8818 274.578 65.3858 274.29C65.9018 273.99 66.3098 273.564 66.6098 273.012C66.9098 272.448 67.0598 271.788 67.0598 271.032ZM79.8899 270.69C79.8899 271.002 79.8719 271.332 79.8359 271.68H71.9519C72.0119 272.652 72.3419 273.414 72.9419 273.966C73.5539 274.506 74.2919 274.776 75.1559 274.776C75.8639 274.776 76.4519 274.614 76.9199 274.29C77.3999 273.954 77.7359 273.51 77.9279 272.958H79.6919C79.4279 273.906 78.8999 274.68 78.1079 275.28C77.3159 275.868 76.3319 276.162 75.1559 276.162C74.2199 276.162 73.3799 275.952 72.6359 275.532C71.9039 275.112 71.3279 274.518 70.9079 273.75C70.4879 272.97 70.2779 272.07 70.2779 271.05C70.2779 270.03 70.4819 269.136 70.8899 268.368C71.2979 267.6 71.8679 267.012 72.5999 266.604C73.3439 266.184 74.1959 265.974 75.1559 265.974C76.0919 265.974 76.9199 266.178 77.6399 266.586C78.3599 266.994 78.9119 267.558 79.2959 268.278C79.6919 268.986 79.8899 269.79 79.8899 270.69ZM78.1979 270.348C78.1979 269.724 78.0599 269.19 77.7839 268.746C77.5079 268.29 77.1299 267.948 76.6499 267.72C76.1819 267.48 75.6599 267.36 75.0839 267.36C74.2559 267.36 73.5479 267.624 72.9599 268.152C72.3839 268.68 72.0539 269.412 71.9699 270.348H78.1979ZM85.544 276.162C84.788 276.162 84.11 276.036 83.51 275.784C82.91 275.52 82.436 275.16 82.088 274.704C81.74 274.236 81.548 273.702 81.512 273.102H83.204C83.252 273.594 83.48 273.996 83.888 274.308C84.308 274.62 84.854 274.776 85.526 274.776C86.15 274.776 86.642 274.638 87.002 274.362C87.362 274.086 87.542 273.738 87.542 273.318C87.542 272.886 87.35 272.568 86.966 272.364C86.582 272.148 85.988 271.938 85.184 271.734C84.452 271.542 83.852 271.35 83.384 271.158C82.928 270.954 82.532 270.66 82.196 270.276C81.872 269.88 81.71 269.364 81.71 268.728C81.71 268.224 81.86 267.762 82.16 267.342C82.46 266.922 82.886 266.592 83.438 266.352C83.99 266.1 84.62 265.974 85.328 265.974C86.42 265.974 87.302 266.25 87.974 266.802C88.646 267.354 89.006 268.11 89.054 269.07H87.416C87.38 268.554 87.17 268.14 86.786 267.828C86.414 267.516 85.91 267.36 85.274 267.36C84.686 267.36 84.218 267.486 83.87 267.738C83.522 267.99 83.348 268.32 83.348 268.728C83.348 269.052 83.45 269.322 83.654 269.538C83.87 269.742 84.134 269.91 84.446 270.042C84.77 270.162 85.214 270.3 85.778 270.456C86.486 270.648 87.062 270.84 87.506 271.032C87.95 271.212 88.328 271.488 88.64 271.86C88.964 272.232 89.132 272.718 89.144 273.318C89.144 273.858 88.994 274.344 88.694 274.776C88.394 275.208 87.968 275.55 87.416 275.802C86.876 276.042 86.252 276.162 85.544 276.162ZM100.456 270.69C100.456 271.002 100.438 271.332 100.402 271.68H92.5183C92.5783 272.652 92.9083 273.414 93.5083 273.966C94.1203 274.506 94.8583 274.776 95.7223 274.776C96.4303 274.776 97.0183 274.614 97.4863 274.29C97.9663 273.954 98.3023 273.51 98.4943 272.958H100.258C99.9943 273.906 99.4663 274.68 98.6743 275.28C97.8823 275.868 96.8983 276.162 95.7223 276.162C94.7863 276.162 93.9463 275.952 93.2023 275.532C92.4703 275.112 91.8943 274.518 91.4743 273.75C91.0543 272.97 90.8443 272.07 90.8443 271.05C90.8443 270.03 91.0483 269.136 91.4563 268.368C91.8643 267.6 92.4343 267.012 93.1663 266.604C93.9103 266.184 94.7623 265.974 95.7223 265.974C96.6583 265.974 97.4863 266.178 98.2063 266.586C98.9263 266.994 99.4783 267.558 99.8623 268.278C100.258 268.986 100.456 269.79 100.456 270.69ZM98.7643 270.348C98.7643 269.724 98.6263 269.19 98.3503 268.746C98.0743 268.29 97.6963 267.948 97.2163 267.72C96.7483 267.48 96.2263 267.36 95.6503 267.36C94.8223 267.36 94.1143 267.624 93.5263 268.152C92.9503 268.68 92.6203 269.412 92.5363 270.348H98.7643ZM104.616 267.486V273.3C104.616 273.78 104.718 274.122 104.922 274.326C105.126 274.518 105.48 274.614 105.984 274.614H107.19V276H105.714C104.802 276 104.118 275.79 103.662 275.37C103.206 274.95 102.978 274.26 102.978 273.3V267.486H101.7V266.136H102.978V263.652H104.616V266.136H107.19V267.486H104.616ZM111.173 267.486V273.3C111.173 273.78 111.275 274.122 111.479 274.326C111.683 274.518 112.037 274.614 112.541 274.614H113.747V276H112.271C111.359 276 110.675 275.79 110.219 275.37C109.763 274.95 109.535 274.26 109.535 273.3V267.486H108.257V266.136H109.535V263.652H111.173V266.136H113.747V267.486H111.173ZM116.578 264.534C116.266 264.534 116.002 264.426 115.786 264.21C115.57 263.994 115.462 263.73 115.462 263.418C115.462 263.106 115.57 262.842 115.786 262.626C116.002 262.41 116.266 262.302 116.578 262.302C116.878 262.302 117.13 262.41 117.334 262.626C117.55 262.842 117.658 263.106 117.658 263.418C117.658 263.73 117.55 263.994 117.334 264.21C117.13 264.426 116.878 264.534 116.578 264.534ZM117.37 266.136V276H115.732V266.136H117.37ZM124.967 265.956C126.167 265.956 127.139 266.322 127.883 267.054C128.627 267.774 128.999 268.818 128.999 270.186V276H127.379V270.42C127.379 269.436 127.133 268.686 126.641 268.17C126.149 267.642 125.477 267.378 124.625 267.378C123.761 267.378 123.071 267.648 122.555 268.188C122.051 268.728 121.799 269.514 121.799 270.546V276H120.161V266.136H121.799V267.54C122.123 267.036 122.561 266.646 123.113 266.37C123.677 266.094 124.295 265.956 124.967 265.956ZM135.743 265.974C136.595 265.974 137.339 266.16 137.975 266.532C138.623 266.904 139.103 267.372 139.415 267.936V266.136H141.071V276.216C141.071 277.116 140.879 277.914 140.495 278.61C140.111 279.318 139.559 279.87 138.839 280.266C138.131 280.662 137.303 280.86 136.355 280.86C135.059 280.86 133.979 280.554 133.115 279.942C132.251 279.33 131.741 278.496 131.585 277.44H133.205C133.385 278.04 133.757 278.52 134.321 278.88C134.885 279.252 135.563 279.438 136.355 279.438C137.255 279.438 137.987 279.156 138.551 278.592C139.127 278.028 139.415 277.236 139.415 276.216V274.146C139.091 274.722 138.611 275.202 137.975 275.586C137.339 275.97 136.595 276.162 135.743 276.162C134.867 276.162 134.069 275.946 133.349 275.514C132.641 275.082 132.083 274.476 131.675 273.696C131.267 272.916 131.063 272.028 131.063 271.032C131.063 270.024 131.267 269.142 131.675 268.386C132.083 267.618 132.641 267.024 133.349 266.604C134.069 266.184 134.867 265.974 135.743 265.974ZM139.415 271.05C139.415 270.306 139.265 269.658 138.965 269.106C138.665 268.554 138.257 268.134 137.741 267.846C137.237 267.546 136.679 267.396 136.067 267.396C135.455 267.396 134.897 267.54 134.393 267.828C133.889 268.116 133.487 268.536 133.187 269.088C132.887 269.64 132.737 270.288 132.737 271.032C132.737 271.788 132.887 272.448 133.187 273.012C133.487 273.564 133.889 273.99 134.393 274.29C134.897 274.578 135.455 274.722 136.067 274.722C136.679 274.722 137.237 274.578 137.741 274.29C138.257 273.99 138.665 273.564 138.965 273.012C139.265 272.448 139.415 271.794 139.415 271.05ZM149.484 264.534C149.172 264.534 148.908 264.426 148.692 264.21C148.476 263.994 148.368 263.73 148.368 263.418C148.368 263.106 148.476 262.842 148.692 262.626C148.908 262.41 149.172 262.302 149.484 262.302C149.784 262.302 150.036 262.41 150.24 262.626C150.456 262.842 150.564 263.106 150.564 263.418C150.564 263.73 150.456 263.994 150.24 264.21C150.036 264.426 149.784 264.534 149.484 264.534ZM150.276 266.136V276H148.638V266.136H150.276ZM157.874 265.956C159.074 265.956 160.046 266.322 160.79 267.054C161.534 267.774 161.906 268.818 161.906 270.186V276H160.286V270.42C160.286 269.436 160.04 268.686 159.548 268.17C159.056 267.642 158.384 267.378 157.532 267.378C156.668 267.378 155.978 267.648 155.462 268.188C154.958 268.728 154.706 269.514 154.706 270.546V276H153.068V266.136H154.706V267.54C155.03 267.036 155.468 266.646 156.02 266.37C156.584 266.094 157.202 265.956 157.874 265.956ZM163.969 271.032C163.969 270.024 164.173 269.142 164.581 268.386C164.989 267.618 165.547 267.024 166.255 266.604C166.975 266.184 167.779 265.974 168.667 265.974C169.435 265.974 170.149 266.154 170.809 266.514C171.469 266.862 171.973 267.324 172.321 267.9V262.68H173.977V276H172.321V274.146C171.997 274.734 171.517 275.22 170.881 275.604C170.245 275.976 169.501 276.162 168.649 276.162C167.773 276.162 166.975 275.946 166.255 275.514C165.547 275.082 164.989 274.476 164.581 273.696C164.173 272.916 163.969 272.028 163.969 271.032ZM172.321 271.05C172.321 270.306 172.171 269.658 171.871 269.106C171.571 268.554 171.163 268.134 170.647 267.846C170.143 267.546 169.585 267.396 168.973 267.396C168.361 267.396 167.803 267.54 167.299 267.828C166.795 268.116 166.393 268.536 166.093 269.088C165.793 269.64 165.643 270.288 165.643 271.032C165.643 271.788 165.793 272.448 166.093 273.012C166.393 273.564 166.795 273.99 167.299 274.29C167.803 274.578 168.361 274.722 168.973 274.722C169.585 274.722 170.143 274.578 170.647 274.29C171.163 273.99 171.571 273.564 171.871 273.012C172.171 272.448 172.321 271.794 172.321 271.05ZM185.493 266.136V276H183.855V274.542C183.543 275.046 183.105 275.442 182.541 275.73C181.989 276.006 181.377 276.144 180.705 276.144C179.937 276.144 179.247 275.988 178.635 275.676C178.023 275.352 177.537 274.872 177.177 274.236C176.829 273.6 176.655 272.826 176.655 271.914V266.136H178.275V271.698C178.275 272.67 178.521 273.42 179.013 273.948C179.505 274.464 180.177 274.722 181.029 274.722C181.905 274.722 182.595 274.452 183.099 273.912C183.603 273.372 183.855 272.586 183.855 271.554V266.136H185.493ZM191.751 276.162C190.995 276.162 190.317 276.036 189.717 275.784C189.117 275.52 188.643 275.16 188.295 274.704C187.947 274.236 187.755 273.702 187.719 273.102H189.411C189.459 273.594 189.687 273.996 190.095 274.308C190.515 274.62 191.061 274.776 191.733 274.776C192.357 274.776 192.849 274.638 193.209 274.362C193.569 274.086 193.749 273.738 193.749 273.318C193.749 272.886 193.557 272.568 193.173 272.364C192.789 272.148 192.195 271.938 191.391 271.734C190.659 271.542 190.059 271.35 189.591 271.158C189.135 270.954 188.739 270.66 188.403 270.276C188.079 269.88 187.917 269.364 187.917 268.728C187.917 268.224 188.067 267.762 188.367 267.342C188.667 266.922 189.093 266.592 189.645 266.352C190.197 266.1 190.827 265.974 191.535 265.974C192.627 265.974 193.509 266.25 194.181 266.802C194.853 267.354 195.213 268.11 195.261 269.07H193.623C193.587 268.554 193.377 268.14 192.993 267.828C192.621 267.516 192.117 267.36 191.481 267.36C190.893 267.36 190.425 267.486 190.077 267.738C189.729 267.99 189.555 268.32 189.555 268.728C189.555 269.052 189.657 269.322 189.861 269.538C190.077 269.742 190.341 269.91 190.653 270.042C190.977 270.162 191.421 270.3 191.985 270.456C192.693 270.648 193.269 270.84 193.713 271.032C194.157 271.212 194.535 271.488 194.847 271.86C195.171 272.232 195.339 272.718 195.351 273.318C195.351 273.858 195.201 274.344 194.901 274.776C194.601 275.208 194.175 275.55 193.623 275.802C193.083 276.042 192.459 276.162 191.751 276.162ZM199.661 267.486V273.3C199.661 273.78 199.763 274.122 199.967 274.326C200.171 274.518 200.525 274.614 201.029 274.614H202.235V276H200.759C199.847 276 199.163 275.79 198.707 275.37C198.251 274.95 198.023 274.26 198.023 273.3V267.486H196.745V266.136H198.023V263.652H199.661V266.136H202.235V267.486H199.661ZM205.858 267.738C206.146 267.174 206.554 266.736 207.082 266.424C207.622 266.112 208.276 265.956 209.044 265.956V267.648H208.612C206.776 267.648 205.858 268.644 205.858 270.636V276H204.22V266.136H205.858V267.738ZM219.431 266.136L213.491 280.644H211.799L213.743 275.892L209.765 266.136H211.583L214.679 274.128L217.739 266.136H219.431ZM221.599 276.108C221.287 276.108 221.023 276 220.807 275.784C220.591 275.568 220.483 275.304 220.483 274.992C220.483 274.68 220.591 274.416 220.807 274.2C221.023 273.984 221.287 273.876 221.599 273.876C221.899 273.876 222.151 273.984 222.355 274.2C222.571 274.416 222.679 274.68 222.679 274.992C222.679 275.304 222.571 275.568 222.355 275.784C222.151 276 221.899 276.108 221.599 276.108ZM231.294 274.668H235.686V276H229.656V263.454H231.294V274.668ZM241.727 276.162C240.803 276.162 239.963 275.952 239.207 275.532C238.463 275.112 237.875 274.518 237.443 273.75C237.023 272.97 236.813 272.07 236.813 271.05C236.813 270.042 237.029 269.154 237.461 268.386C237.905 267.606 238.505 267.012 239.261 266.604C240.017 266.184 240.863 265.974 241.799 265.974C242.735 265.974 243.581 266.184 244.337 266.604C245.093 267.012 245.687 267.6 246.119 268.368C246.563 269.136 246.785 270.03 246.785 271.05C246.785 272.07 246.557 272.97 246.101 273.75C245.657 274.518 245.051 275.112 244.283 275.532C243.515 275.952 242.663 276.162 241.727 276.162ZM241.727 274.722C242.315 274.722 242.867 274.584 243.383 274.308C243.899 274.032 244.313 273.618 244.625 273.066C244.949 272.514 245.111 271.842 245.111 271.05C245.111 270.258 244.955 269.586 244.643 269.034C244.331 268.482 243.923 268.074 243.419 267.81C242.915 267.534 242.369 267.396 241.781 267.396C241.181 267.396 240.629 267.534 240.125 267.81C239.633 268.074 239.237 268.482 238.937 269.034C238.637 269.586 238.487 270.258 238.487 271.05C238.487 271.854 238.631 272.532 238.919 273.084C239.219 273.636 239.615 274.05 240.107 274.326C240.599 274.59 241.139 274.722 241.727 274.722ZM250.577 267.738C250.865 267.174 251.273 266.736 251.801 266.424C252.341 266.112 252.995 265.956 253.763 265.956V267.648H253.331C251.495 267.648 250.577 268.644 250.577 270.636V276H248.939V266.136H250.577V267.738ZM264.654 270.69C264.654 271.002 264.636 271.332 264.6 271.68H256.716C256.776 272.652 257.106 273.414 257.706 273.966C258.318 274.506 259.056 274.776 259.92 274.776C260.628 274.776 261.216 274.614 261.684 274.29C262.164 273.954 262.5 273.51 262.692 272.958H264.456C264.192 273.906 263.664 274.68 262.872 275.28C262.08 275.868 261.096 276.162 259.92 276.162C258.984 276.162 258.144 275.952 257.4 275.532C256.668 275.112 256.092 274.518 255.672 273.75C255.252 272.97 255.042 272.07 255.042 271.05C255.042 270.03 255.246 269.136 255.654 268.368C256.062 267.6 256.632 267.012 257.364 266.604C258.108 266.184 258.96 265.974 259.92 265.974C260.856 265.974 261.684 266.178 262.404 266.586C263.124 266.994 263.676 267.558 264.06 268.278C264.456 268.986 264.654 269.79 264.654 270.69ZM262.962 270.348C262.962 269.724 262.824 269.19 262.548 268.746C262.272 268.29 261.894 267.948 261.414 267.72C260.946 267.48 260.424 267.36 259.848 267.36C259.02 267.36 258.312 267.624 257.724 268.152C257.148 268.68 256.818 269.412 256.734 270.348H262.962ZM278.678 265.956C279.446 265.956 280.13 266.118 280.73 266.442C281.33 266.754 281.804 267.228 282.152 267.864C282.5 268.5 282.674 269.274 282.674 270.186V276H281.054V270.42C281.054 269.436 280.808 268.686 280.316 268.17C279.836 267.642 279.182 267.378 278.354 267.378C277.502 267.378 276.824 267.654 276.32 268.206C275.816 268.746 275.564 269.532 275.564 270.564V276H273.944V270.42C273.944 269.436 273.698 268.686 273.206 268.17C272.726 267.642 272.072 267.378 271.244 267.378C270.392 267.378 269.714 267.654 269.21 268.206C268.706 268.746 268.454 269.532 268.454 270.564V276H266.816V266.136H268.454V267.558C268.778 267.042 269.21 266.646 269.75 266.37C270.302 266.094 270.908 265.956 271.568 265.956C272.396 265.956 273.128 266.142 273.764 266.514C274.4 266.886 274.874 267.432 275.186 268.152C275.462 267.456 275.918 266.916 276.554 266.532C277.19 266.148 277.898 265.956 278.678 265.956ZM291.797 263.454V276H290.159V263.454H291.797ZM296.227 267.954C296.551 267.39 297.031 266.922 297.667 266.55C298.315 266.166 299.065 265.974 299.917 265.974C300.793 265.974 301.585 266.184 302.293 266.604C303.013 267.024 303.577 267.618 303.985 268.386C304.393 269.142 304.597 270.024 304.597 271.032C304.597 272.028 304.393 272.916 303.985 273.696C303.577 274.476 303.013 275.082 302.293 275.514C301.585 275.946 300.793 276.162 299.917 276.162C299.077 276.162 298.333 275.976 297.685 275.604C297.049 275.22 296.563 274.746 296.227 274.182V280.68H294.589V266.136H296.227V267.954ZM302.923 271.032C302.923 270.288 302.773 269.64 302.473 269.088C302.173 268.536 301.765 268.116 301.249 267.828C300.745 267.54 300.187 267.396 299.575 267.396C298.975 267.396 298.417 267.546 297.901 267.846C297.397 268.134 296.989 268.56 296.677 269.124C296.377 269.676 296.227 270.318 296.227 271.05C296.227 271.794 296.377 272.448 296.677 273.012C296.989 273.564 297.397 273.99 297.901 274.29C298.417 274.578 298.975 274.722 299.575 274.722C300.187 274.722 300.745 274.578 301.249 274.29C301.765 273.99 302.173 273.564 302.473 273.012C302.773 272.448 302.923 271.788 302.923 271.032ZM310.245 276.162C309.489 276.162 308.811 276.036 308.211 275.784C307.611 275.52 307.137 275.16 306.789 274.704C306.441 274.236 306.249 273.702 306.213 273.102H307.905C307.953 273.594 308.181 273.996 308.589 274.308C309.009 274.62 309.555 274.776 310.227 274.776C310.851 274.776 311.343 274.638 311.703 274.362C312.063 274.086 312.243 273.738 312.243 273.318C312.243 272.886 312.051 272.568 311.667 272.364C311.283 272.148 310.689 271.938 309.885 271.734C309.153 271.542 308.553 271.35 308.085 271.158C307.629 270.954 307.233 270.66 306.897 270.276C306.573 269.88 306.411 269.364 306.411 268.728C306.411 268.224 306.561 267.762 306.861 267.342C307.161 266.922 307.587 266.592 308.139 266.352C308.691 266.1 309.321 265.974 310.029 265.974C311.121 265.974 312.003 266.25 312.675 266.802C313.347 267.354 313.707 268.11 313.755 269.07H312.117C312.081 268.554 311.871 268.14 311.487 267.828C311.115 267.516 310.611 267.36 309.975 267.36C309.387 267.36 308.919 267.486 308.571 267.738C308.223 267.99 308.049 268.32 308.049 268.728C308.049 269.052 308.151 269.322 308.355 269.538C308.571 269.742 308.835 269.91 309.147 270.042C309.471 270.162 309.915 270.3 310.479 270.456C311.187 270.648 311.763 270.84 312.207 271.032C312.651 271.212 313.029 271.488 313.341 271.86C313.665 272.232 313.833 272.718 313.845 273.318C313.845 273.858 313.695 274.344 313.395 274.776C313.095 275.208 312.669 275.55 312.117 275.802C311.577 276.042 310.953 276.162 310.245 276.162ZM324.905 266.136V276H323.267V274.542C322.955 275.046 322.517 275.442 321.953 275.73C321.401 276.006 320.789 276.144 320.117 276.144C319.349 276.144 318.659 275.988 318.047 275.676C317.435 275.352 316.949 274.872 316.589 274.236C316.241 273.6 316.067 272.826 316.067 271.914V266.136H317.687V271.698C317.687 272.67 317.933 273.42 318.425 273.948C318.917 274.464 319.589 274.722 320.441 274.722C321.317 274.722 322.007 274.452 322.511 273.912C323.015 273.372 323.267 272.586 323.267 271.554V266.136H324.905ZM339.533 265.956C340.301 265.956 340.985 266.118 341.585 266.442C342.185 266.754 342.659 267.228 343.007 267.864C343.355 268.5 343.529 269.274 343.529 270.186V276H341.909V270.42C341.909 269.436 341.663 268.686 341.171 268.17C340.691 267.642 340.037 267.378 339.209 267.378C338.357 267.378 337.679 267.654 337.175 268.206C336.671 268.746 336.419 269.532 336.419 270.564V276H334.799V270.42C334.799 269.436 334.553 268.686 334.061 268.17C333.581 267.642 332.927 267.378 332.099 267.378C331.247 267.378 330.569 267.654 330.065 268.206C329.561 268.746 329.309 269.532 329.309 270.564V276H327.671V266.136H329.309V267.558C329.633 267.042 330.065 266.646 330.605 266.37C331.157 266.094 331.763 265.956 332.423 265.956C333.251 265.956 333.983 266.142 334.619 266.514C335.255 266.886 335.729 267.432 336.041 268.152C336.317 267.456 336.773 266.916 337.409 266.532C338.045 266.148 338.753 265.956 339.533 265.956ZM355.911 265.956C356.655 265.956 357.327 266.118 357.927 266.442C358.527 266.754 358.995 267.228 359.331 267.864C359.679 268.5 359.853 269.274 359.853 270.186V276H358.233V270.42C358.233 269.436 357.987 268.686 357.495 268.17C357.003 267.642 356.331 267.378 355.479 267.378C354.615 267.378 353.925 267.648 353.409 268.188C352.905 268.728 352.653 269.514 352.653 270.546V276H351.015V262.68H352.653V267.54C352.977 267.036 353.421 266.646 353.985 266.37C354.561 266.094 355.203 265.956 355.911 265.956ZM361.917 271.032C361.917 270.024 362.121 269.142 362.529 268.386C362.937 267.618 363.495 267.024 364.203 266.604C364.923 266.184 365.721 265.974 366.597 265.974C367.461 265.974 368.211 266.16 368.847 266.532C369.483 266.904 369.957 267.372 370.269 267.936V266.136H371.925V276H370.269V274.164C369.945 274.74 369.459 275.22 368.811 275.604C368.175 275.976 367.431 276.162 366.579 276.162C365.703 276.162 364.911 275.946 364.203 275.514C363.495 275.082 362.937 274.476 362.529 273.696C362.121 272.916 361.917 272.028 361.917 271.032ZM370.269 271.05C370.269 270.306 370.119 269.658 369.819 269.106C369.519 268.554 369.111 268.134 368.595 267.846C368.091 267.546 367.533 267.396 366.921 267.396C366.309 267.396 365.751 267.54 365.247 267.828C364.743 268.116 364.341 268.536 364.041 269.088C363.741 269.64 363.591 270.288 363.591 271.032C363.591 271.788 363.741 272.448 364.041 273.012C364.341 273.564 364.743 273.99 365.247 274.29C365.751 274.578 366.309 274.722 366.921 274.722C367.533 274.722 368.091 274.578 368.595 274.29C369.111 273.99 369.519 273.564 369.819 273.012C370.119 272.448 370.269 271.794 370.269 271.05ZM378.185 276.162C377.429 276.162 376.751 276.036 376.151 275.784C375.551 275.52 375.077 275.16 374.729 274.704C374.381 274.236 374.189 273.702 374.153 273.102H375.845C375.893 273.594 376.121 273.996 376.529 274.308C376.949 274.62 377.495 274.776 378.167 274.776C378.791 274.776 379.283 274.638 379.643 274.362C380.003 274.086 380.183 273.738 380.183 273.318C380.183 272.886 379.991 272.568 379.607 272.364C379.223 272.148 378.629 271.938 377.825 271.734C377.093 271.542 376.493 271.35 376.025 271.158C375.569 270.954 375.173 270.66 374.837 270.276C374.513 269.88 374.351 269.364 374.351 268.728C374.351 268.224 374.501 267.762 374.801 267.342C375.101 266.922 375.527 266.592 376.079 266.352C376.631 266.1 377.261 265.974 377.969 265.974C379.061 265.974 379.943 266.25 380.615 266.802C381.287 267.354 381.647 268.11 381.695 269.07H380.057C380.021 268.554 379.811 268.14 379.427 267.828C379.055 267.516 378.551 267.36 377.915 267.36C377.327 267.36 376.859 267.486 376.511 267.738C376.163 267.99 375.989 268.32 375.989 268.728C375.989 269.052 376.091 269.322 376.295 269.538C376.511 269.742 376.775 269.91 377.087 270.042C377.411 270.162 377.855 270.3 378.419 270.456C379.127 270.648 379.703 270.84 380.147 271.032C380.591 271.212 380.969 271.488 381.281 271.86C381.605 272.232 381.773 272.718 381.785 273.318C381.785 273.858 381.635 274.344 381.335 274.776C381.035 275.208 380.609 275.55 380.057 275.802C379.517 276.042 378.893 276.162 378.185 276.162ZM390.534 267.972C390.87 267.384 391.362 266.904 392.01 266.532C392.658 266.16 393.396 265.974 394.224 265.974C395.112 265.974 395.91 266.184 396.618 266.604C397.326 267.024 397.884 267.618 398.292 268.386C398.7 269.142 398.904 270.024 398.904 271.032C398.904 272.028 398.7 272.916 398.292 273.696C397.884 274.476 397.32 275.082 396.6 275.514C395.892 275.946 395.1 276.162 394.224 276.162C393.372 276.162 392.622 275.976 391.974 275.604C391.338 275.232 390.858 274.758 390.534 274.182V276H388.896V262.68H390.534V267.972ZM397.23 271.032C397.23 270.288 397.08 269.64 396.78 269.088C396.48 268.536 396.072 268.116 395.556 267.828C395.052 267.54 394.494 267.396 393.882 267.396C393.282 267.396 392.724 267.546 392.208 267.846C391.704 268.134 391.296 268.56 390.984 269.124C390.684 269.676 390.534 270.318 390.534 271.05C390.534 271.794 390.684 272.448 390.984 273.012C391.296 273.564 391.704 273.99 392.208 274.29C392.724 274.578 393.282 274.722 393.882 274.722C394.494 274.722 395.052 274.578 395.556 274.29C396.072 273.99 396.48 273.564 396.78 273.012C397.08 272.448 397.23 271.788 397.23 271.032ZM410.06 270.69C410.06 271.002 410.042 271.332 410.006 271.68H402.122C402.182 272.652 402.512 273.414 403.112 273.966C403.724 274.506 404.462 274.776 405.326 274.776C406.034 274.776 406.622 274.614 407.09 274.29C407.57 273.954 407.906 273.51 408.098 272.958H409.862C409.598 273.906 409.07 274.68 408.278 275.28C407.486 275.868 406.502 276.162 405.326 276.162C404.39 276.162 403.55 275.952 402.806 275.532C402.074 275.112 401.498 274.518 401.078 273.75C400.658 272.97 400.448 272.07 400.448 271.05C400.448 270.03 400.652 269.136 401.06 268.368C401.468 267.6 402.038 267.012 402.77 266.604C403.514 266.184 404.366 265.974 405.326 265.974C406.262 265.974 407.09 266.178 407.81 266.586C408.53 266.994 409.082 267.558 409.466 268.278C409.862 268.986 410.06 269.79 410.06 270.69ZM408.368 270.348C408.368 269.724 408.23 269.19 407.954 268.746C407.678 268.29 407.3 267.948 406.82 267.72C406.352 267.48 405.83 267.36 405.254 267.36C404.426 267.36 403.718 267.624 403.13 268.152C402.554 268.68 402.224 269.412 402.14 270.348H408.368ZM421.222 270.69C421.222 271.002 421.204 271.332 421.168 271.68H413.284C413.344 272.652 413.674 273.414 414.274 273.966C414.886 274.506 415.624 274.776 416.488 274.776C417.196 274.776 417.784 274.614 418.252 274.29C418.732 273.954 419.068 273.51 419.26 272.958H421.024C420.76 273.906 420.232 274.68 419.44 275.28C418.648 275.868 417.664 276.162 416.488 276.162C415.552 276.162 414.712 275.952 413.968 275.532C413.236 275.112 412.66 274.518 412.24 273.75C411.82 272.97 411.61 272.07 411.61 271.05C411.61 270.03 411.814 269.136 412.222 268.368C412.63 267.6 413.2 267.012 413.932 266.604C414.676 266.184 415.528 265.974 416.488 265.974C417.424 265.974 418.252 266.178 418.972 266.586C419.692 266.994 420.244 267.558 420.628 268.278C421.024 268.986 421.222 269.79 421.222 270.69ZM419.53 270.348C419.53 269.724 419.392 269.19 419.116 268.746C418.84 268.29 418.462 267.948 417.982 267.72C417.514 267.48 416.992 267.36 416.416 267.36C415.588 267.36 414.88 267.624 414.292 268.152C413.716 268.68 413.386 269.412 413.302 270.348H419.53ZM428.19 265.956C429.39 265.956 430.362 266.322 431.106 267.054C431.85 267.774 432.222 268.818 432.222 270.186V276H430.602V270.42C430.602 269.436 430.356 268.686 429.864 268.17C429.372 267.642 428.7 267.378 427.848 267.378C426.984 267.378 426.294 267.648 425.778 268.188C425.274 268.728 425.022 269.514 425.022 270.546V276H423.384V266.136H425.022V267.54C425.346 267.036 425.784 266.646 426.336 266.37C426.9 266.094 427.518 265.956 428.19 265.956ZM3.384 299.486V305.3C3.384 305.78 3.486 306.122 3.69 306.326C3.894 306.518 4.248 306.614 4.752 306.614H5.958V308H4.482C3.57 308 2.886 307.79 2.43 307.37C1.974 306.95 1.746 306.26 1.746 305.3V299.486H0.468V298.136H1.746V295.652H3.384V298.136H5.958V299.486H3.384ZM12.8386 297.956C13.5826 297.956 14.2546 298.118 14.8546 298.442C15.4546 298.754 15.9226 299.228 16.2586 299.864C16.6066 300.5 16.7806 301.274 16.7806 302.186V308H15.1606V302.42C15.1606 301.436 14.9146 300.686 14.4226 300.17C13.9306 299.642 13.2586 299.378 12.4066 299.378C11.5426 299.378 10.8526 299.648 10.3366 300.188C9.83264 300.728 9.58064 301.514 9.58064 302.546V308H7.94264V294.68H9.58064V299.54C9.90464 299.036 10.3486 298.646 10.9126 298.37C11.4886 298.094 12.1306 297.956 12.8386 297.956ZM28.4563 302.69C28.4563 303.002 28.4383 303.332 28.4023 303.68H20.5183C20.5783 304.652 20.9083 305.414 21.5083 305.966C22.1203 306.506 22.8583 306.776 23.7223 306.776C24.4303 306.776 25.0183 306.614 25.4863 306.29C25.9663 305.954 26.3023 305.51 26.4943 304.958H28.2583C27.9943 305.906 27.4663 306.68 26.6743 307.28C25.8823 307.868 24.8983 308.162 23.7223 308.162C22.7863 308.162 21.9463 307.952 21.2023 307.532C20.4703 307.112 19.8943 306.518 19.4743 305.75C19.0543 304.97 18.8443 304.07 18.8443 303.05C18.8443 302.03 19.0483 301.136 19.4563 300.368C19.8643 299.6 20.4343 299.012 21.1663 298.604C21.9103 298.184 22.7623 297.974 23.7223 297.974C24.6583 297.974 25.4863 298.178 26.2063 298.586C26.9263 298.994 27.4783 299.558 27.8623 300.278C28.2583 300.986 28.4563 301.79 28.4563 302.69ZM26.7643 302.348C26.7643 301.724 26.6263 301.19 26.3503 300.746C26.0743 300.29 25.6963 299.948 25.2163 299.72C24.7483 299.48 24.2263 299.36 23.6503 299.36C22.8223 299.36 22.1143 299.624 21.5263 300.152C20.9503 300.68 20.6203 301.412 20.5363 302.348H26.7643ZM36.2633 296.534C35.9513 296.534 35.6873 296.426 35.4713 296.21C35.2553 295.994 35.1473 295.73 35.1473 295.418C35.1473 295.106 35.2553 294.842 35.4713 294.626C35.6873 294.41 35.9513 294.302 36.2633 294.302C36.5633 294.302 36.8153 294.41 37.0193 294.626C37.2353 294.842 37.3433 295.106 37.3433 295.418C37.3433 295.73 37.2353 295.994 37.0193 296.21C36.8153 296.426 36.5633 296.534 36.2633 296.534ZM37.0553 298.136V308H35.4173V298.136H37.0553ZM44.6529 297.956C45.8529 297.956 46.8249 298.322 47.5689 299.054C48.3129 299.774 48.6849 300.818 48.6849 302.186V308H47.0649V302.42C47.0649 301.436 46.8189 300.686 46.3269 300.17C45.8349 299.642 45.1629 299.378 44.3109 299.378C43.4469 299.378 42.7569 299.648 42.2409 300.188C41.7369 300.728 41.4849 301.514 41.4849 302.546V308H39.8469V298.136H41.4849V299.54C41.8089 299.036 42.2469 298.646 42.7989 298.37C43.3629 298.094 43.9809 297.956 44.6529 297.956ZM50.7486 303.032C50.7486 302.024 50.9526 301.142 51.3606 300.386C51.7686 299.618 52.3266 299.024 53.0346 298.604C53.7546 298.184 54.5586 297.974 55.4466 297.974C56.2146 297.974 56.9286 298.154 57.5886 298.514C58.2486 298.862 58.7526 299.324 59.1006 299.9V294.68H60.7566V308H59.1006V306.146C58.7766 306.734 58.2966 307.22 57.6606 307.604C57.0246 307.976 56.2806 308.162 55.4286 308.162C54.5526 308.162 53.7546 307.946 53.0346 307.514C52.3266 307.082 51.7686 306.476 51.3606 305.696C50.9526 304.916 50.7486 304.028 50.7486 303.032ZM59.1006 303.05C59.1006 302.306 58.9506 301.658 58.6506 301.106C58.3506 300.554 57.9426 300.134 57.4266 299.846C56.9226 299.546 56.3646 299.396 55.7526 299.396C55.1406 299.396 54.5826 299.54 54.0786 299.828C53.5746 300.116 53.1726 300.536 52.8726 301.088C52.5726 301.64 52.4226 302.288 52.4226 303.032C52.4226 303.788 52.5726 304.448 52.8726 305.012C53.1726 305.564 53.5746 305.99 54.0786 306.29C54.5826 306.578 55.1406 306.722 55.7526 306.722C56.3646 306.722 56.9226 306.578 57.4266 306.29C57.9426 305.99 58.3506 305.564 58.6506 305.012C58.9506 304.448 59.1006 303.794 59.1006 303.05ZM72.2727 298.136V308H70.6347V306.542C70.3227 307.046 69.8847 307.442 69.3207 307.73C68.7687 308.006 68.1567 308.144 67.4847 308.144C66.7167 308.144 66.0267 307.988 65.4147 307.676C64.8027 307.352 64.3167 306.872 63.9567 306.236C63.6087 305.6 63.4347 304.826 63.4347 303.914V298.136H65.0547V303.698C65.0547 304.67 65.3007 305.42 65.7927 305.948C66.2847 306.464 66.9567 306.722 67.8087 306.722C68.6847 306.722 69.3747 306.452 69.8787 305.912C70.3827 305.372 70.6347 304.586 70.6347 303.554V298.136H72.2727ZM78.5303 308.162C77.7743 308.162 77.0963 308.036 76.4963 307.784C75.8963 307.52 75.4223 307.16 75.0743 306.704C74.7263 306.236 74.5343 305.702 74.4983 305.102H76.1903C76.2383 305.594 76.4663 305.996 76.8743 306.308C77.2943 306.62 77.8403 306.776 78.5123 306.776C79.1363 306.776 79.6283 306.638 79.9883 306.362C80.3483 306.086 80.5283 305.738 80.5283 305.318C80.5283 304.886 80.3363 304.568 79.9523 304.364C79.5683 304.148 78.9743 303.938 78.1703 303.734C77.4383 303.542 76.8383 303.35 76.3703 303.158C75.9143 302.954 75.5183 302.66 75.1823 302.276C74.8583 301.88 74.6963 301.364 74.6963 300.728C74.6963 300.224 74.8463 299.762 75.1463 299.342C75.4463 298.922 75.8723 298.592 76.4243 298.352C76.9763 298.1 77.6063 297.974 78.3143 297.974C79.4063 297.974 80.2883 298.25 80.9603 298.802C81.6323 299.354 81.9923 300.11 82.0403 301.07H80.4023C80.3663 300.554 80.1563 300.14 79.7723 299.828C79.4003 299.516 78.8963 299.36 78.2603 299.36C77.6723 299.36 77.2043 299.486 76.8563 299.738C76.5083 299.99 76.3343 300.32 76.3343 300.728C76.3343 301.052 76.4363 301.322 76.6403 301.538C76.8563 301.742 77.1203 301.91 77.4323 302.042C77.7563 302.162 78.2003 302.3 78.7643 302.456C79.4723 302.648 80.0483 302.84 80.4923 303.032C80.9363 303.212 81.3143 303.488 81.6263 303.86C81.9503 304.232 82.1183 304.718 82.1303 305.318C82.1303 305.858 81.9803 306.344 81.6803 306.776C81.3803 307.208 80.9543 307.55 80.4023 307.802C79.8623 308.042 79.2383 308.162 78.5303 308.162ZM86.4406 299.486V305.3C86.4406 305.78 86.5426 306.122 86.7466 306.326C86.9506 306.518 87.3046 306.614 87.8086 306.614H89.0146V308H87.5386C86.6266 308 85.9426 307.79 85.4866 307.37C85.0306 306.95 84.8026 306.26 84.8026 305.3V299.486H83.5246V298.136H84.8026V295.652H86.4406V298.136H89.0146V299.486H86.4406ZM92.6373 299.738C92.9253 299.174 93.3333 298.736 93.8613 298.424C94.4013 298.112 95.0553 297.956 95.8233 297.956V299.648H95.3913C93.5553 299.648 92.6373 300.644 92.6373 302.636V308H90.9993V298.136H92.6373V299.738ZM106.21 298.136L100.27 312.644H98.5781L100.522 307.892L96.5441 298.136H98.3621L101.458 306.128L104.518 298.136H106.21ZM108.685 293.672L108.469 297.254H107.335L107.101 293.672H108.685ZM114.214 308.162C113.458 308.162 112.78 308.036 112.18 307.784C111.58 307.52 111.106 307.16 110.758 306.704C110.41 306.236 110.218 305.702 110.182 305.102H111.874C111.922 305.594 112.15 305.996 112.558 306.308C112.978 306.62 113.524 306.776 114.196 306.776C114.82 306.776 115.312 306.638 115.672 306.362C116.032 306.086 116.212 305.738 116.212 305.318C116.212 304.886 116.02 304.568 115.636 304.364C115.252 304.148 114.658 303.938 113.854 303.734C113.122 303.542 112.522 303.35 112.054 303.158C111.598 302.954 111.202 302.66 110.866 302.276C110.542 301.88 110.38 301.364 110.38 300.728C110.38 300.224 110.53 299.762 110.83 299.342C111.13 298.922 111.556 298.592 112.108 298.352C112.66 298.1 113.29 297.974 113.998 297.974C115.09 297.974 115.972 298.25 116.644 298.802C117.316 299.354 117.676 300.11 117.724 301.07H116.086C116.05 300.554 115.84 300.14 115.456 299.828C115.084 299.516 114.58 299.36 113.944 299.36C113.356 299.36 112.888 299.486 112.54 299.738C112.192 299.99 112.018 300.32 112.018 300.728C112.018 301.052 112.12 301.322 112.324 301.538C112.54 301.742 112.804 301.91 113.116 302.042C113.44 302.162 113.884 302.3 114.448 302.456C115.156 302.648 115.732 302.84 116.176 303.032C116.62 303.212 116.998 303.488 117.31 303.86C117.634 304.232 117.802 304.718 117.814 305.318C117.814 305.858 117.664 306.344 117.364 306.776C117.064 307.208 116.638 307.55 116.086 307.802C115.546 308.042 114.922 308.162 114.214 308.162Z" fill="#868686"/>
</svg>
