<svg width="221" height="30" viewBox="0 0 221 30" fill="none" xmlns="http://www.w3.org/2000/svg">
<path d="M66.66 16.2H62.2V20.7H60.9V16.2H56.46V15H60.9V10.5H62.2V15H66.66V16.2ZM71.2655 19.18C71.4121 20.0467 71.7455 20.7133 72.2655 21.18C72.7855 21.6467 73.4988 21.88 74.4055 21.88C75.6588 21.88 76.5855 21.3933 77.1855 20.42C77.7988 19.4333 78.0788 17.8067 78.0255 15.54C77.7721 16.2733 77.2855 16.8533 76.5655 17.28C75.8588 17.6933 75.0455 17.9 74.1255 17.9C72.7255 17.9 71.5988 17.48 70.7455 16.64C69.9055 15.8 69.4855 14.6333 69.4855 13.14C69.4855 12.2467 69.6588 11.44 70.0055 10.72C70.3521 10 70.8788 9.43333 71.5855 9.02C72.2921 8.60667 73.1588 8.4 74.1855 8.4C76.0788 8.4 77.3988 9.02 78.1455 10.26C78.8921 11.4867 79.2655 13.2533 79.2655 15.56C79.2655 18.0533 78.8921 19.9267 78.1455 21.18C77.4121 22.4333 76.1455 23.06 74.3455 23.06C73.0255 23.06 71.9988 22.7067 71.2655 22C70.5321 21.28 70.0988 20.34 69.9655 19.18H71.2655ZM74.3455 16.7C74.9721 16.7 75.5455 16.5733 76.0655 16.32C76.5988 16.0533 77.0255 15.6667 77.3455 15.16C77.6655 14.6533 77.8255 14.0467 77.8255 13.34C77.8255 12.2467 77.5121 11.3467 76.8855 10.64C76.2721 9.93333 75.3855 9.58 74.2255 9.58C73.1988 9.58 72.3721 9.9 71.7455 10.54C71.1321 11.18 70.8255 12.0333 70.8255 13.1C70.8255 14.22 71.1321 15.1 71.7455 15.74C72.3588 16.38 73.2255 16.7 74.3455 16.7ZM81.2855 19.6V18.54L88.5655 8.74H90.2255V18.38H92.3655V19.6H90.2255V23H88.8455V19.6H81.2855ZM88.9055 10.28L82.9055 18.38H88.9055V10.28ZM99.0394 19.6V18.54L106.319 8.74H107.979V18.38H110.119V19.6H107.979V23H106.599V19.6H99.0394ZM106.659 10.28L100.659 18.38H106.659V10.28ZM111.305 19.6V18.54L118.585 8.74H120.245V18.38H122.385V19.6H120.245V23H118.865V19.6H111.305ZM118.925 10.28L112.925 18.38H118.925V10.28ZM123.571 19.6V18.54L130.851 8.74H132.511V18.38H134.651V19.6H132.511V23H131.131V19.6H123.571ZM131.191 10.28L125.191 18.38H131.191V10.28ZM135.836 19.6V18.54L143.116 8.74H144.776V18.38H146.916V19.6H144.776V23H143.396V19.6H135.836ZM143.456 10.28L137.456 18.38H143.456V10.28ZM163.25 9.86H155.93V14.98C156.263 14.5133 156.75 14.1333 157.39 13.84C158.03 13.5333 158.723 13.38 159.47 13.38C160.563 13.38 161.457 13.6067 162.15 14.06C162.843 14.5 163.343 15.08 163.65 15.8C163.957 16.5067 164.11 17.2667 164.11 18.08C164.11 19.0133 163.93 19.86 163.57 20.62C163.223 21.3667 162.683 21.96 161.95 22.4C161.23 22.84 160.33 23.06 159.25 23.06C157.877 23.06 156.763 22.7067 155.91 22C155.057 21.28 154.537 20.3133 154.35 19.1H155.73C155.903 19.98 156.303 20.66 156.93 21.14C157.557 21.62 158.33 21.86 159.25 21.86C160.41 21.86 161.283 21.52 161.87 20.84C162.47 20.1467 162.77 19.2333 162.77 18.1C162.77 16.9933 162.47 16.1333 161.87 15.52C161.27 14.8933 160.41 14.58 159.29 14.58C158.517 14.58 157.837 14.76 157.25 15.12C156.663 15.48 156.23 15.9667 155.95 16.58H154.63V8.64H163.25V9.86ZM175.594 9.86H168.274V14.98C168.607 14.5133 169.094 14.1333 169.734 13.84C170.374 13.5333 171.067 13.38 171.814 13.38C172.907 13.38 173.801 13.6067 174.494 14.06C175.187 14.5 175.687 15.08 175.994 15.8C176.301 16.5067 176.454 17.2667 176.454 18.08C176.454 19.0133 176.274 19.86 175.914 20.62C175.567 21.3667 175.027 21.96 174.294 22.4C173.574 22.84 172.674 23.06 171.594 23.06C170.221 23.06 169.107 22.7067 168.254 22C167.401 21.28 166.881 20.3133 166.694 19.1H168.074C168.247 19.98 168.647 20.66 169.274 21.14C169.901 21.62 170.674 21.86 171.594 21.86C172.754 21.86 173.627 21.52 174.214 20.84C174.814 20.1467 175.114 19.2333 175.114 18.1C175.114 16.9933 174.814 16.1333 174.214 15.52C173.614 14.8933 172.754 14.58 171.634 14.58C170.861 14.58 170.181 14.76 169.594 15.12C169.007 15.48 168.574 15.9667 168.294 16.58H166.974V8.64H175.594V9.86ZM187.938 9.86H180.618V14.98C180.951 14.5133 181.438 14.1333 182.078 13.84C182.718 13.5333 183.411 13.38 184.158 13.38C185.251 13.38 186.144 13.6067 186.838 14.06C187.531 14.5 188.031 15.08 188.338 15.8C188.644 16.5067 188.798 17.2667 188.798 18.08C188.798 19.0133 188.618 19.86 188.258 20.62C187.911 21.3667 187.371 21.96 186.638 22.4C185.918 22.84 185.018 23.06 183.938 23.06C182.564 23.06 181.451 22.7067 180.598 22C179.744 21.28 179.224 20.3133 179.038 19.1H180.418C180.591 19.98 180.991 20.66 181.618 21.14C182.244 21.62 183.018 21.86 183.938 21.86C185.098 21.86 185.971 21.52 186.558 20.84C187.158 20.1467 187.458 19.2333 187.458 18.1C187.458 16.9933 187.158 16.1333 186.558 15.52C185.958 14.8933 185.098 14.58 183.978 14.58C183.204 14.58 182.524 14.76 181.938 15.12C181.351 15.48 180.918 15.9667 180.638 16.58H179.318V8.64H187.938V9.86ZM200.281 9.86H192.961V14.98C193.295 14.5133 193.781 14.1333 194.421 13.84C195.061 13.5333 195.755 13.38 196.501 13.38C197.595 13.38 198.488 13.6067 199.181 14.06C199.875 14.5 200.375 15.08 200.681 15.8C200.988 16.5067 201.141 17.2667 201.141 18.08C201.141 19.0133 200.961 19.86 200.601 20.62C200.255 21.3667 199.715 21.96 198.981 22.4C198.261 22.84 197.361 23.06 196.281 23.06C194.908 23.06 193.795 22.7067 192.941 22C192.088 21.28 191.568 20.3133 191.381 19.1H192.761C192.935 19.98 193.335 20.66 193.961 21.14C194.588 21.62 195.361 21.86 196.281 21.86C197.441 21.86 198.315 21.52 198.901 20.84C199.501 20.1467 199.801 19.2333 199.801 18.1C199.801 16.9933 199.501 16.1333 198.901 15.52C198.301 14.8933 197.441 14.58 196.321 14.58C195.548 14.58 194.868 14.76 194.281 15.12C193.695 15.48 193.261 15.9667 192.981 16.58H191.661V8.64H200.281V9.86ZM217.313 12.16C217.02 10.4267 216.013 9.56 214.293 9.56C212.987 9.56 212.007 10.0667 211.353 11.08C210.7 12.0933 210.4 13.7533 210.453 16.06C210.72 15.26 211.227 14.6333 211.973 14.18C212.733 13.7133 213.6 13.48 214.573 13.48C215.973 13.48 217.08 13.9133 217.893 14.78C218.72 15.6333 219.133 16.8133 219.133 18.32C219.133 19.2 218.96 20 218.613 20.72C218.28 21.4267 217.76 21.9933 217.053 22.42C216.36 22.8467 215.493 23.06 214.453 23.06C212.467 23.06 211.093 22.4267 210.333 21.16C209.587 19.8933 209.213 18.1 209.213 15.78C209.213 10.8467 210.907 8.38 214.293 8.38C215.573 8.38 216.58 8.73333 217.313 9.44C218.047 10.1333 218.48 11.04 218.613 12.16H217.313ZM214.313 14.68C213.687 14.68 213.093 14.8067 212.533 15.06C211.973 15.3133 211.513 15.7 211.153 16.22C210.807 16.7267 210.633 17.3533 210.633 18.1C210.633 19.18 210.953 20.08 211.593 20.8C212.233 21.52 213.167 21.88 214.393 21.88C215.42 21.88 216.24 21.5667 216.853 20.94C217.467 20.3133 217.773 19.46 217.773 18.38C217.773 17.22 217.473 16.3133 216.873 15.66C216.273 15.0067 215.42 14.68 214.313 14.68Z" fill="#333333"/>
<g clip-path="url(#clip0_2_1947)">
<path d="M10.0759 12.3489C11.104 11.3208 11.104 9.64807 10.0759 8.61999L6.4603 5.00434C5.90724 4.45122 5.14054 4.17096 4.35755 4.23542C3.5895 4.29864 2.89481 4.69016 2.45167 5.3095C2.35968 5.43805 2.27085 5.56848 2.18384 5.69997L9.45433 12.9705L10.0759 12.3489Z" fill="black"/>
<path d="M24.9956 23.5394L21.38 19.9237C20.352 18.8958 18.6791 18.8956 17.651 19.9237L17.0294 20.5454L24.3002 27.8161C24.4317 27.7291 24.5619 27.6399 24.6904 27.548C25.3097 27.1049 25.7012 26.4102 25.7645 25.6421C25.829 24.859 25.5487 24.0926 24.9956 23.5394Z" fill="black"/>
<path d="M14.5436 21.939C13.8392 21.939 13.1772 21.6648 12.6791 21.1668L8.83305 17.3207C8.33506 16.8227 8.06072 16.1605 8.06072 15.4562C8.06072 15.0561 8.14949 14.6698 8.31719 14.3193L1.28582 7.28784C0.296757 9.36458 -0.140938 11.6913 0.0396476 14.0267C0.282987 17.1738 1.64014 20.1301 3.86119 22.3511L7.64881 26.1386C9.86975 28.3596 12.8261 29.7168 15.9732 29.9602C16.317 29.9868 16.6606 30 17.0034 30C18.9883 30 20.941 29.5575 22.712 28.7141L15.6805 21.6826C15.33 21.8503 14.9437 21.939 14.5436 21.939Z" fill="black"/>
<path d="M17.6952 0C17.2098 0 16.8163 0.393516 16.8163 0.878906C16.8163 1.3643 17.2098 1.75781 17.6952 1.75781C23.5107 1.75781 28.2421 6.48914 28.2421 12.3047C28.2421 12.7901 28.6356 13.1836 29.121 13.1836C29.6064 13.1836 29.9999 12.7901 29.9999 12.3047C29.9999 5.51988 24.48 0 17.6952 0Z" fill="black"/>
<path d="M17.6951 12.3039C17.6951 12.3039 17.6952 12.3042 17.6952 12.3047C17.6952 12.7901 18.0887 13.1836 18.5741 13.1836C19.0595 13.1836 19.453 12.7901 19.453 12.3047C19.453 11.3354 18.6644 10.5469 17.6952 10.5469C17.2098 10.5469 16.8163 10.94 16.8163 11.4254C16.8163 11.9108 17.2097 12.3039 17.6951 12.3039Z" fill="black"/>
<path d="M17.6952 8.78906C19.6337 8.78906 21.2108 10.3662 21.2108 12.3047C21.2108 12.7901 21.6043 13.1836 22.0897 13.1836C22.5751 13.1836 22.9686 12.7901 22.9686 12.3047C22.9686 9.39691 20.603 7.03125 17.6952 7.03125C17.2098 7.03125 16.8163 7.42477 16.8163 7.91016C16.8163 8.39555 17.2098 8.78906 17.6952 8.78906Z" fill="black"/>
<path d="M17.6952 3.51562C17.2098 3.51562 16.8163 3.90914 16.8163 4.39453C16.8163 4.87992 17.2098 5.27344 17.6952 5.27344C21.5722 5.27344 24.7264 8.42766 24.7264 12.3047C24.7264 12.7901 25.12 13.1836 25.6053 13.1836C26.0907 13.1836 26.4843 12.7901 26.4843 12.3047C26.4843 7.4584 22.5415 3.51562 17.6952 3.51562Z" fill="black"/>
</g>
<defs>
<clipPath id="clip0_2_1947">
<rect width="30" height="30" fill="white"/>
</clipPath>
</defs>
</svg>
